<svg width="85" height="62" viewBox="0 0 85 62" fill="none" xmlns="http://www.w3.org/2000/svg">
<path d="M17.8322 42.3176C11.4918 42.3176 6.34033 37.2001 6.34033 30.9017C6.34033 24.6033 11.4918 19.4858 17.8322 19.4858C24.1725 19.4858 29.324 24.6033 29.324 30.9017C29.1259 37.2001 24.1725 42.3176 17.8322 42.3176ZM17.8322 21.2573C12.4825 21.2573 7.92541 25.5874 7.92541 31.0985C7.92541 36.6096 12.2844 40.9398 17.8322 40.9398C23.38 40.9398 27.7389 36.6096 27.7389 31.0985C27.7389 25.5874 23.1818 21.2573 17.8322 21.2573Z" fill="white"/>
<path d="M17.8321 37.0029C14.4638 37.0029 11.6899 34.2473 11.6899 30.9013C11.6899 30.5076 12.0862 30.114 12.4825 30.114C12.8788 30.114 13.275 30.5076 13.275 30.9013C13.275 33.46 15.2564 35.4283 17.8321 35.4283C20.2098 35.4283 22.1911 33.46 22.1911 31.0981C22.1911 28.7362 20.2098 26.768 17.8321 26.768C17.4359 26.768 17.0396 26.3743 17.0396 25.9807C17.0396 25.587 17.4359 25.1934 17.8321 25.1934C21.2004 25.1934 23.9743 27.9489 23.9743 31.2949C23.9743 34.641 21.2004 37.0029 17.8321 37.0029Z" fill="white"/>
<path d="M8.51981 37.003H6.14219C2.77389 37.003 0 34.2474 0 30.9014C0 27.5554 2.77389 24.7998 6.14219 24.7998H8.51981C8.71795 24.7998 9.11422 24.9966 9.31235 25.1935C9.51049 25.3903 9.51049 25.7839 9.31235 25.9808C8.32168 27.5554 7.92541 29.3268 7.92541 30.9014C7.92541 32.476 8.32168 34.2474 9.31235 35.822C9.51049 36.0189 9.51049 36.4125 9.31235 36.6093C9.11422 36.8062 8.71795 37.003 8.51981 37.003ZM6.14219 26.5712C3.76457 26.5712 1.78322 28.5395 1.78322 30.9014C1.78322 33.2633 3.76457 35.2316 6.14219 35.2316H7.13287C6.53846 33.8538 6.14219 32.2792 6.14219 30.9014C6.14219 29.3268 6.53846 27.949 7.13287 26.5712H6.14219Z" fill="white"/>
<path d="M26.9464 37.0031C26.7482 37.0031 26.352 36.8063 26.352 36.6094C26.1538 36.4126 26.1538 36.0189 26.352 35.6253C27.1445 34.2475 27.7389 32.4761 27.7389 30.7047C27.7389 28.9332 27.3426 27.3586 26.352 25.784C26.1538 25.5872 26.1538 25.1936 26.352 24.7999C26.5501 24.6031 26.9464 24.4062 27.1445 24.4062L42.0047 27.3586C42.4009 27.3586 42.5991 27.7523 42.5991 28.1459V32.6729C42.5991 33.0666 42.4009 33.4602 42.0047 33.4602L26.9464 37.0031C27.1445 37.0031 27.1445 37.0031 26.9464 37.0031ZM28.5315 26.7682C29.1259 28.1459 29.324 29.5237 29.324 30.9015C29.324 32.2793 29.1259 33.657 28.5315 35.0348L41.2121 32.4761V29.3269L28.5315 26.7682Z" fill="white"/>
<path d="M25.5595 24.6033C25.3614 24.6033 25.1632 24.6033 24.9651 24.4065C23.1819 22.4382 20.408 21.2573 17.6341 21.2573C17.2378 21.2573 16.8416 21.0604 16.8416 20.6668C16.8416 20.2731 16.8416 19.8795 17.2378 19.6826L53.4966 0.196935C53.6947 0.00011006 54.091 0.00011006 54.2891 0.196935C54.4872 0.393761 54.6854 0.590586 54.6854 0.984237V3.93662C54.6854 4.13344 54.4872 4.52709 54.2891 4.52709L51.5152 6.49535C51.1189 6.69217 50.7227 6.69217 50.3264 6.29852C50.1283 5.90487 50.1283 5.51122 50.5245 5.11757L52.9022 3.34614V2.16519L20.2099 19.8795C22.1912 20.2731 23.9744 21.2573 25.5595 22.8319L29.9185 19.6826C30.3147 19.4858 30.711 19.4858 31.1073 19.8795C31.3054 20.2731 31.3054 20.6668 30.9092 21.0604L25.9558 24.6033C25.9558 24.6033 25.7576 24.6033 25.5595 24.6033Z" fill="white"/>
<path d="M30.5129 21.2569C30.3147 21.2569 29.9185 21.0601 29.9185 20.8633C29.7203 20.4696 29.7203 20.076 30.1166 19.6823L31.8998 18.5014C32.2961 18.3045 32.6924 18.3045 33.0886 18.6982C33.2868 19.0918 33.2868 19.4855 32.8905 19.8791L31.1073 21.0601C30.9092 21.0601 30.711 21.2569 30.5129 21.2569Z" fill="white"/>
<path d="M38.6364 15.3526C38.4383 15.3526 38.042 15.1557 38.042 14.9589C37.8439 14.5653 37.8439 14.1716 38.2401 13.778L42.5991 10.8256C42.9954 10.6287 43.3917 10.6287 43.7879 11.0224C43.9861 11.4161 43.9861 11.8097 43.5898 12.2034L39.2308 15.1557C39.0327 15.3526 38.8346 15.3526 38.6364 15.3526Z" fill="white"/>
<path d="M49.3356 7.87264C49.1375 7.87264 48.7412 7.67581 48.7412 7.47898C48.5431 7.08533 48.5431 6.69168 48.9394 6.29803L50.7226 5.11708C51.1189 4.92025 51.5151 4.92025 51.9114 5.3139C52.1095 5.70756 52.1095 6.10121 51.7133 6.49486L49.93 7.87264C49.7319 7.87264 49.5338 7.87264 49.3356 7.87264Z" fill="white"/>
<path d="M53.8928 62C53.6947 62 53.6947 62 53.4965 61.8032L17.4359 42.3175C17.0396 42.1207 16.8415 41.727 17.0396 41.3334C17.0396 40.9397 17.4359 40.7429 17.8322 40.7429C20.6061 40.7429 23.1818 39.5619 25.1632 37.5937C25.3613 37.2 25.9557 37.2 26.1539 37.3969L54.4872 57.2762C54.6853 57.4731 54.8835 57.6699 54.8835 57.8667V61.0159C54.8835 61.2127 54.6853 61.6064 54.4872 61.8032C54.0909 61.8032 54.0909 62 53.8928 62ZM20.4079 42.1207L53.1003 59.835V58.4572L25.7576 39.1683C24.1725 40.5461 22.3893 41.5302 20.4079 42.1207Z" fill="white"/>
<path d="M84.2074 62.0004H33.2867C32.8904 62.0004 32.4941 61.6067 32.4941 61.2131C32.4941 60.8194 32.8904 60.4258 33.2867 60.4258H84.2074C84.6037 60.4258 85 60.8194 85 61.2131C85 61.6067 84.6037 62.0004 84.2074 62.0004Z" fill="white"/>
<path d="M2.97203 62H0.792541C0.39627 62 0 61.6063 0 61.0158C0 60.6222 0.39627 60.2285 0.792541 60.2285H2.97203C3.3683 60.2285 3.76457 60.6222 3.76457 61.0158C3.76457 61.6063 3.56643 62 2.97203 62Z" fill="white"/>
<path d="M24.5688 62.0004H20.2099C19.8136 62.0004 19.4173 61.6067 19.4173 61.2131C19.4173 60.8194 19.8136 60.4258 20.2099 60.4258H24.5688C24.9651 60.4258 25.3614 60.8194 25.3614 61.2131C25.3614 61.6067 24.9651 62.0004 24.5688 62.0004ZM13.8695 62.0004H9.51056C9.11429 62.0004 8.71802 61.6067 8.71802 61.2131C8.71802 60.8194 9.11429 60.4258 9.51056 60.4258H13.8695C14.2658 60.4258 14.6621 60.8194 14.6621 61.2131C14.6621 61.6067 14.2658 62.0004 13.8695 62.0004Z" fill="white"/>
<path d="M33.2867 62.0004H31.1072C30.711 62.0004 30.3147 61.6067 30.3147 61.2131C30.3147 60.8194 30.711 60.4258 31.1072 60.4258H33.2867C33.683 60.4258 34.0793 60.8194 34.0793 61.2131C34.0793 61.6067 33.683 62.0004 33.2867 62.0004Z" fill="white"/>
<path d="M81.2354 53.7333C80.8391 53.7333 80.4429 53.3397 80.4429 52.946V50.781C80.4429 50.3873 80.8391 49.9937 81.2354 49.9937C81.6317 49.9937 82.028 50.3873 82.028 50.781V52.946C82.028 53.3397 81.6317 53.7333 81.2354 53.7333Z" fill="white"/>
<path d="M81.2354 45.0731C80.8392 45.0731 80.4429 44.6794 80.4429 44.2858V39.9556C80.4429 39.562 80.8392 39.1683 81.2354 39.1683C81.6317 39.1683 82.028 39.562 82.028 39.9556V44.2858C82.028 44.6794 81.6317 45.0731 81.2354 45.0731ZM81.2354 34.4445C80.8392 34.4445 80.4429 34.0509 80.4429 33.6572V29.3271C80.4429 28.9334 80.8392 28.5398 81.2354 28.5398C81.6317 28.5398 82.028 28.9334 82.028 29.3271V33.4604C82.028 34.0509 81.6317 34.4445 81.2354 34.4445ZM81.2354 23.6191C80.8392 23.6191 80.4429 23.2255 80.4429 22.8318V18.5017C80.2448 17.9112 80.641 17.7144 81.2354 17.7144C81.6317 17.7144 82.028 18.108 82.028 18.5017V22.8318C82.028 23.2255 81.6317 23.6191 81.2354 23.6191Z" fill="white"/>
<path d="M81.2354 12.7939C80.8391 12.7939 80.4429 12.4002 80.4429 12.0066V9.8415C80.4429 9.44785 80.8391 9.0542 81.2354 9.0542C81.6317 9.0542 82.028 9.44785 82.028 9.8415V12.0066C82.028 12.4002 81.6317 12.7939 81.2354 12.7939Z" fill="white"/>
<path d="M81.2354 62H58.648C58.2517 62 57.8555 61.6063 57.8555 61.2127V0.787302C57.8555 0.393651 58.2517 0 58.648 0H81.2354C81.6317 0 82.028 0.393651 82.028 0.787302V9.84127C82.028 10.2349 81.6317 10.6286 81.2354 10.6286C80.8391 10.6286 80.4429 10.2349 80.4429 9.84127V1.5746H59.4405V60.2286H80.2447V52.946C80.2447 52.5524 80.641 52.1587 81.0373 52.1587C81.4336 52.1587 81.8298 52.5524 81.8298 52.946V61.0159C82.028 61.6063 81.6317 62 81.2354 62Z" fill="white"/>
<path d="M78.2634 46.4509H61.4219C61.0257 46.4509 60.6294 46.0572 60.6294 45.6636V40.5461C60.6294 40.1524 61.0257 39.7588 61.4219 39.7588H78.2634C78.6597 39.7588 79.056 40.1524 79.056 40.5461V45.6636C79.056 46.0572 78.6597 46.4509 78.2634 46.4509ZM62.4126 44.8763H77.4709V41.5302H62.4126V44.8763Z" fill="white"/>
<path d="M78.2634 28.5397H61.4219C61.0257 28.5397 60.6294 28.1461 60.6294 27.7524V22.635C60.6294 22.2413 61.0257 21.8477 61.4219 21.8477H78.2634C78.6597 21.8477 79.056 22.2413 79.056 22.635V27.7524C79.056 28.1461 78.6597 28.5397 78.2634 28.5397ZM62.4126 26.9651H77.4709V23.6191H62.4126V26.9651Z" fill="white"/>
<path d="M78.2634 37.5939H61.4219C61.0257 37.5939 60.6294 37.2003 60.6294 36.8066V31.6892C60.6294 31.2955 61.0257 30.9019 61.4219 30.9019H78.2634C78.6597 30.9019 79.056 31.2955 79.056 31.6892V36.8066C79.056 37.2003 78.6597 37.5939 78.2634 37.5939ZM62.4126 35.8225H77.4709V32.4765H62.4126V35.8225Z" fill="white"/>
<path d="M78.2634 10.6286H61.4219C61.0257 10.6286 60.6294 10.2349 60.6294 9.84129V4.72383C60.6294 4.33017 61.0257 3.93652 61.4219 3.93652H78.2634C78.6597 3.93652 79.056 4.33017 79.056 4.72383V9.84129C79.056 10.2349 78.6597 10.6286 78.2634 10.6286ZM62.4126 9.05398H77.4709V5.51113H62.4126V9.05398Z" fill="white"/>
<path d="M78.2634 19.4855H61.4219C61.0257 19.4855 60.6294 19.0918 60.6294 18.6982V13.7775C60.6294 13.3839 61.0257 12.9902 61.4219 12.9902H78.2634C78.6597 12.9902 79.056 13.3839 79.056 13.7775V18.895C79.056 19.2886 78.6597 19.4855 78.2634 19.4855ZM62.4126 17.9109H77.4709V14.5648H62.4126V17.9109Z" fill="white"/>
<path d="M84.2073 1.5746H53.8926C53.4964 1.5746 53.1001 1.18095 53.1001 0.787302C53.1001 0.393651 53.4964 0 53.8926 0H84.2073C84.6036 0 84.9999 0.393651 84.9999 0.787302C84.9999 1.18095 84.6036 1.5746 84.2073 1.5746Z" fill="white"/>
<path d="M75.4897 62.0001H64.3941C63.9978 62.0001 63.6016 61.6065 63.6016 61.2128V50.1906C63.6016 49.797 63.9978 49.4033 64.3941 49.4033H75.4897C75.8859 49.4033 76.2822 49.797 76.2822 50.1906V61.016C76.2822 61.6065 75.8859 62.0001 75.4897 62.0001ZM65.1866 60.2287H74.499V50.9779H65.1866V60.2287Z" fill="white"/>
<path d="M69.9417 62C69.5454 62 69.1492 61.6064 69.1492 61.2127V50.5842C69.1492 50.1905 69.5454 49.7969 69.9417 49.7969C70.338 49.7969 70.7342 50.1905 70.7342 50.5842V61.0159C70.7342 61.6064 70.338 62 69.9417 62Z" fill="white"/>
</svg>
