<svg width="237" height="239" viewBox="0 0 237 239" fill="none" xmlns="http://www.w3.org/2000/svg">
<ellipse cx="118.156" cy="119.413" rx="118.156" ry="119.413" fill="#1C1F2A"/>
<g clip-path="url(#clip0_88_4447)">
<path d="M112.365 172.663H94.8839C94.2596 172.663 93.6353 172.018 93.6353 171.372V77.443C93.6353 76.7974 94.2596 76.1519 94.8839 76.1519H112.365C112.989 76.1519 113.613 76.7974 113.613 77.443V171.372C113.613 172.018 112.989 172.663 112.365 172.663ZM96.1325 170.081H110.804V78.7341H96.1325V170.081Z" fill="white"/>
<path d="M116.423 78.734H90.8263C90.2019 78.734 89.5776 78.0884 89.5776 77.4428V61.6266C89.5776 60.981 90.2019 60.3354 90.8263 60.3354H116.423C117.047 60.3354 117.672 60.981 117.672 61.6266V77.4428C117.672 78.0884 117.047 78.734 116.423 78.734ZM92.0749 76.1517H115.174V62.9177H92.0749V76.1517Z" fill="white"/>
<path d="M184.472 76.4738H116.422C115.798 76.4738 115.173 75.8283 115.173 75.1827V63.8854C115.173 63.2398 115.798 62.5942 116.422 62.5942H172.298C172.61 62.5942 172.922 62.5942 173.234 62.917L185.408 74.2144C185.72 74.5371 185.72 75.1827 185.408 75.8283C185.408 76.151 184.784 76.4738 184.472 76.4738ZM117.671 73.8916H181.038L171.673 65.1765H117.671V73.8916Z" fill="white"/>
<path d="M112.365 104.88H94.8839C94.2596 104.88 93.6353 104.234 93.6353 103.589V91.0001C93.6353 90.3545 94.2596 89.709 94.8839 89.709H112.365C112.989 89.709 113.613 90.3545 113.613 91.0001V103.589C113.613 104.557 112.989 104.88 112.365 104.88ZM96.1325 102.297H110.804V92.2912H96.1325V102.297Z" fill="white"/>
<path d="M112.365 131.993H94.8839C94.2596 131.993 93.6353 131.348 93.6353 130.702V118.114C93.6353 117.468 94.2596 116.823 94.8839 116.823H112.365C112.989 116.823 113.613 117.468 113.613 118.114V130.702C113.613 131.348 112.989 131.993 112.365 131.993ZM96.1325 129.411H110.804V119.405H96.1325V129.411Z" fill="white"/>
<path d="M112.365 159.106H94.8839C94.2596 159.106 93.6353 158.461 93.6353 157.815V145.227C93.6353 144.581 94.2596 143.936 94.8839 143.936H112.365C112.989 143.936 113.613 144.581 113.613 145.227V157.815C113.613 158.461 112.989 159.106 112.365 159.106ZM96.1325 156.201H110.804V146.195H96.1325V156.201Z" fill="white"/>
<path d="M112.364 172.663C112.052 172.663 111.74 172.663 111.428 172.34L93.9471 158.784C93.6349 158.461 93.3228 158.138 93.3228 157.815C93.3228 157.493 93.6349 156.847 93.9471 156.847L109.867 145.227L93.9471 131.993C93.6349 131.67 93.3228 131.347 93.3228 131.024C93.3228 130.702 93.6349 130.056 93.9471 130.056L109.867 118.436L93.9471 105.202C93.6349 104.879 93.3228 104.556 93.3228 104.234C93.3228 103.911 93.6349 103.265 93.9471 103.265L109.867 91.6452L93.9471 79.0568C93.3228 78.734 93.3228 77.7657 93.6349 77.1201C94.2592 76.1517 95.1957 75.829 95.82 76.4745L113.301 90.0313C113.613 90.3541 113.925 90.6769 113.925 90.9997C113.925 91.3224 113.613 91.968 113.301 91.968L97.3808 103.588L113.301 116.822C113.613 117.145 113.925 117.468 113.925 117.79C113.925 118.113 113.613 118.759 113.301 118.759L97.3808 130.379L113.301 143.613C113.613 143.936 113.925 144.259 113.925 144.581C113.925 144.904 113.613 145.55 113.301 145.55L97.3808 157.17L113.301 169.758C113.925 170.081 113.925 171.049 113.613 171.695C112.989 172.34 112.676 172.663 112.364 172.663Z" fill="white"/>
<path d="M159.5 76.4746C159.188 76.4746 159.188 76.4746 158.876 76.1518L141.083 65.1772L129.533 76.1518C128.909 76.4746 128.285 76.4746 127.66 76.1518L115.486 64.8545C114.862 64.2089 114.862 63.5633 115.486 62.9178C116.111 62.2722 116.735 62.2722 117.359 62.9178L128.597 73.5695L140.459 62.9178C140.771 62.595 141.395 62.595 142.019 62.9178L159.812 73.8923L171.674 63.2405C172.299 62.9178 172.923 62.9178 173.547 63.2405L185.721 74.5379C186.346 75.1834 186.346 75.829 185.721 76.4746C185.097 77.1201 184.473 77.1201 183.848 76.4746L172.611 65.8228L160.749 76.4746C160.124 76.4746 159.812 76.4746 159.5 76.4746Z" fill="white"/>
<path d="M90.8259 76.4738H46.4998C45.8755 76.4738 45.2512 76.151 45.2512 75.1827V63.8854C45.2512 63.2398 45.8755 62.5942 46.4998 62.5942H90.8259C91.4502 62.5942 92.0746 63.2398 92.0746 63.8854V75.1827C92.0746 76.151 91.4502 76.4738 90.8259 76.4738ZM47.7485 73.8916H89.2652V65.1765H47.7485V73.8916Z" fill="white"/>
<path d="M46.4997 76.4744C46.1875 76.4744 45.8754 76.4744 45.8754 76.4744C45.251 75.8288 44.9389 75.1833 45.5632 74.5377L53.3671 63.2404C53.6792 62.9176 53.9914 62.5948 54.3036 62.5948C54.6157 62.5948 55.24 62.9176 55.24 63.2404L62.7318 73.2466L73.6572 62.9176C73.9694 62.5948 74.2815 62.5948 74.5937 62.5948C74.9058 62.5948 75.218 62.9176 75.5301 63.2404L82.7097 72.9238L89.5771 62.9176C89.8893 62.2721 90.8258 62.2721 91.4501 62.5948C92.0744 63.2404 92.0744 64.2087 91.7622 64.5315L83.9583 75.8288C83.6462 76.4744 83.334 76.4744 82.7097 76.4744C82.3976 76.4744 81.7732 76.1516 81.7732 75.8288L74.5937 65.8226L63.6682 76.1516C63.3561 76.4744 62.7318 76.7972 62.4196 76.4744C62.1074 76.4744 61.7953 76.4744 61.4831 76.1516L54.6157 66.1454L47.7483 76.1516C47.4361 76.4744 46.8118 76.4744 46.4997 76.4744Z" fill="white"/>
<path d="M119.545 181.056H87.7047C87.0804 181.056 86.4561 180.41 86.4561 179.764V171.372C86.4561 170.727 87.0804 170.081 87.7047 170.081H119.545C120.169 170.081 120.793 170.727 120.793 171.372V179.764C120.793 180.41 120.169 181.056 119.545 181.056ZM88.9533 178.473H117.984V172.663H88.9533V178.473Z" fill="white"/>
<path d="M126.411 191.062H80.5243C79.8999 191.062 79.2756 190.416 79.2756 189.77V179.764C79.2756 179.119 79.8999 178.473 80.5243 178.473H126.411C127.035 178.473 127.66 179.119 127.66 179.764V189.77C127.66 190.416 127.348 191.062 126.411 191.062ZM82.085 188.479H125.475V181.378H82.085V188.479Z" fill="white"/>
<path d="M60.5462 103.909C59.9219 103.909 59.2976 103.264 59.2976 102.618V75.1817C59.2976 74.5362 59.9219 73.8906 60.5462 73.8906C61.1705 73.8906 61.7949 74.5362 61.7949 75.1817V102.618C62.107 103.264 61.4827 103.909 60.5462 103.909Z" fill="white"/>
<path d="M66.4776 128.764H54.9278C52.1184 128.764 49.9333 126.504 49.9333 123.599V106.492C49.9333 103.587 52.1184 101.327 54.9278 101.327H66.4776C69.287 101.327 71.4721 103.587 71.4721 106.492V123.599C71.4721 126.504 69.287 128.764 66.4776 128.764ZM54.9278 103.909C53.6792 103.909 52.4306 104.878 52.4306 106.492V123.599C52.4306 124.89 53.3671 126.181 54.9278 126.181H66.4776C67.7262 126.181 68.9748 125.213 68.9748 123.599V106.492C68.9748 105.201 68.0384 103.909 66.4776 103.909H54.9278Z" fill="white"/>
<path d="M184.473 191.06H75.5306C74.9063 191.06 74.282 190.415 74.282 189.769C74.282 189.124 74.9063 188.478 75.5306 188.478H184.473C185.097 188.478 185.722 189.124 185.722 189.769C185.722 190.415 185.097 191.06 184.473 191.06Z" fill="white"/>
<path d="M49.9336 191.06H46.4998C45.8755 191.06 45.2512 190.415 45.2512 189.769C45.2512 189.124 45.8755 188.478 46.4998 188.478H49.9336C50.5579 188.478 51.1822 189.124 51.1822 189.769C51.1822 190.415 50.87 191.06 49.9336 191.06Z" fill="white"/>
<path d="M63.6685 191.06H58.3619C57.7376 191.06 57.1133 190.415 57.1133 189.769C57.1133 189.124 57.7376 188.478 58.3619 188.478H63.9807C64.605 188.478 65.2293 189.124 65.2293 189.769C65.2293 190.415 64.605 191.06 63.6685 191.06Z" fill="white"/>
<path d="M75.5305 191.06H72.0968C71.4725 191.06 70.8481 190.415 70.8481 189.769C70.8481 189.124 71.4725 188.478 72.0968 188.478H75.5305C76.1548 188.478 76.7791 189.124 76.7791 189.769C76.7791 190.415 76.1548 191.06 75.5305 191.06Z" fill="white"/>
<path d="M179.166 184.928C178.541 184.928 177.917 184.282 177.917 183.637V180.086C177.917 179.44 178.541 178.795 179.166 178.795C179.79 178.795 180.414 179.44 180.414 180.086V183.637C180.414 184.282 179.79 184.928 179.166 184.928Z" fill="white"/>
<path d="M179.166 170.727C178.541 170.727 177.917 170.081 177.917 169.436V162.335C177.917 161.689 178.541 161.043 179.166 161.043C179.79 161.043 180.414 161.689 180.414 162.335V169.436C180.414 170.081 179.79 170.727 179.166 170.727ZM179.166 153.297C178.541 153.297 177.917 152.651 177.917 152.006V144.904C177.917 144.259 178.541 143.613 179.166 143.613C179.79 143.613 180.414 144.259 180.414 144.904V152.006C180.414 152.651 179.79 153.297 179.166 153.297Z" fill="white"/>
<path d="M179.166 135.544C178.541 135.544 177.917 134.899 177.917 134.253V130.703C177.917 130.057 178.541 129.412 179.166 129.412C179.79 129.412 180.414 130.057 180.414 130.703V134.253C180.414 134.899 179.79 135.544 179.166 135.544Z" fill="white"/>
<path d="M179.166 191.061H131.718C131.094 191.061 130.469 190.416 130.469 189.77V122.955C130.469 122.309 131.094 121.664 131.718 121.664H179.166C179.79 121.664 180.414 122.309 180.414 122.955V130.701C180.414 131.347 179.79 131.993 179.166 131.993C178.541 131.993 177.917 131.347 177.917 130.701V124.246H132.967V188.479H177.917V183.637C177.917 182.992 178.541 182.346 179.166 182.346C179.79 182.346 180.414 182.992 180.414 183.637V189.77C180.414 190.416 179.79 191.061 179.166 191.061Z" fill="white"/>
<path d="M166.055 191.06H144.516C143.892 191.06 143.268 190.415 143.268 189.769V172.016C143.268 171.371 143.892 170.725 144.516 170.725H166.055C166.679 170.725 167.304 171.371 167.304 172.016V189.769C167.304 190.415 166.679 191.06 166.055 191.06ZM146.077 188.478H164.806V173.307H146.077V188.478Z" fill="white"/>
<path d="M164.182 83.8968H147.326C146.702 83.8968 146.077 83.2513 146.077 82.6057V75.1817C146.077 74.5362 146.702 73.8906 147.326 73.8906H164.182C164.807 73.8906 165.431 74.5362 165.431 75.1817V82.6057C165.431 83.2513 164.807 83.8968 164.182 83.8968ZM148.575 81.3146H162.934V76.4729H148.575V81.3146Z" fill="white"/>
<path d="M184.472 111.981H126.724C126.099 111.981 125.475 111.335 125.475 110.69V103.588C125.475 102.943 126.099 102.297 126.724 102.297H184.785C185.409 102.297 186.033 102.943 186.033 103.588V110.69C186.033 111.335 185.409 111.981 184.472 111.981ZM127.972 109.399H183.224V105.202H127.972V109.399Z" fill="white"/>
<path d="M155.754 90.9998C152.632 90.9998 150.135 88.4176 150.135 85.1898V82.6075C150.135 81.962 150.759 81.3164 151.384 81.3164H159.812C160.436 81.3164 161.06 81.962 161.06 82.6075V85.5126C161.06 88.7404 158.563 90.9998 155.754 90.9998ZM152.632 83.8987V85.5126C152.632 87.1265 153.881 88.4176 155.442 88.4176C157.002 88.4176 158.251 87.1265 158.251 85.5126V83.8987H152.632Z" fill="white"/>
<path d="M155.754 104.878C155.129 104.878 154.505 104.232 154.505 103.587V89.7071C154.505 89.0616 155.129 88.416 155.754 88.416C156.378 88.416 157.002 89.0616 157.002 89.7071V103.587C157.002 104.555 156.378 104.878 155.754 104.878Z" fill="white"/>
<path d="M155.442 191.06C154.817 191.06 154.193 190.415 154.193 189.769V172.016C154.193 171.371 154.817 170.725 155.442 170.725C156.066 170.725 156.69 171.371 156.69 172.016V189.769C156.69 190.415 156.066 191.06 155.442 191.06Z" fill="white"/>
<path d="M173.859 144.905H137.024C136.4 144.905 135.776 144.26 135.776 143.614V130.703C135.776 130.057 136.4 129.412 137.024 129.412H173.859C174.483 129.412 175.107 130.057 175.107 130.703V143.614C175.107 144.26 174.483 144.905 173.859 144.905ZM138.273 142H172.61V131.994H138.273V142Z" fill="white"/>
<path d="M173.859 162.335H137.024C136.4 162.335 135.776 161.689 135.776 161.044V148.132C135.776 147.487 136.4 146.841 137.024 146.841H173.859C174.483 146.841 175.107 147.487 175.107 148.132V161.044C175.107 162.012 174.483 162.335 173.859 162.335ZM138.273 159.753H172.61V149.746H138.273V159.753Z" fill="white"/>
</g>
<defs>
<clipPath id="clip0_88_4447">
<rect width="140.782" height="130.726" fill="white" transform="translate(45.2512 60.3354)"/>
</clipPath>
</defs>
</svg>
