<svg width="33" height="34" viewBox="0 0 33 34" fill="none" xmlns="http://www.w3.org/2000/svg">
<path d="M5.73195 34H4.83121C4.66743 34 4.50366 33.8374 4.50366 33.6748C4.50366 33.5122 4.66743 33.3496 4.83121 33.3496H5.73195C5.89572 33.3496 6.05949 33.5122 6.05949 33.6748C6.05949 33.8374 5.89572 34 5.73195 34Z" fill="#64AE45"/>
<path d="M1.22829 34H0.327544C0.163772 34 0 33.8374 0 33.6748C0 33.5122 0.163772 33.3496 0.327544 33.3496H1.22829C1.39206 33.3496 1.55583 33.5122 1.55583 33.6748C1.55583 33.8374 1.47395 34 1.22829 34Z" fill="#64AE45"/>
<path d="M32.6726 34H5.73208C5.56831 34 5.40454 33.8374 5.40454 33.6748C5.40454 33.5122 5.56831 33.3496 5.73208 33.3496H32.6726C32.8363 33.3496 33.0001 33.5122 33.0001 33.6748C33.0001 33.8374 32.8363 34 32.6726 34Z" fill="#64AE45"/>
<path d="M16.7866 27.8212H4.33992C3.02975 27.8212 2.04712 26.7644 2.04712 25.5449C2.04712 24.2441 3.11164 23.2686 4.33992 23.2686H16.7866C18.0968 23.2686 19.0794 24.3254 19.0794 25.5449C19.0794 26.8457 18.0149 27.8212 16.7866 27.8212ZM4.33992 23.9189C3.43918 23.9189 2.70221 24.6506 2.70221 25.5449C2.70221 26.4392 3.43918 27.1709 4.33992 27.1709H16.7866C17.6873 27.1709 18.4243 26.4392 18.4243 25.5449C18.4243 24.6506 17.6873 23.9189 16.7866 23.9189H4.33992Z" fill="#64AE45"/>
<path d="M0.327544 11.3989C0.163772 11.3989 0 11.2363 0 11.0737C0 10.7485 0 10.4233 0 10.1794C0 9.93555 0.163772 9.77295 0.327544 9.77295C0.491315 9.77295 0.655087 9.93554 0.655087 10.0981C0.655087 10.4233 0.655087 10.6672 0.655087 10.9924C0.736973 11.2363 0.573201 11.3176 0.327544 11.3989Z" fill="#64AE45"/>
<path d="M1.88322 16.358C1.71944 16.358 1.63756 16.2767 1.55567 16.1954C1.3919 15.8702 1.22813 15.5451 1.06436 15.2199C0.900585 14.8947 0.736813 14.5695 0.654927 14.3256C0.573041 14.163 0.654927 13.9191 0.818699 13.9191C0.982471 13.8378 1.22813 13.9191 1.22813 14.0817C1.31001 14.4069 1.47379 14.6508 1.63756 14.976C1.80133 15.3012 1.9651 15.6264 2.12887 16.0328C2.21076 16.1954 2.12887 16.4393 1.9651 16.5206C1.9651 16.358 1.9651 16.358 1.88322 16.358Z" fill="#64AE45"/>
<path d="M3.2754 20.1791C3.11163 20.1791 2.94786 20.0979 2.94786 19.9353C2.86597 19.6101 2.78409 19.3662 2.7022 19.1223C2.62031 18.9597 2.78409 18.7158 2.94786 18.7158C3.11163 18.5532 3.2754 18.7158 3.35729 18.8784C3.43917 19.2036 3.52106 19.4475 3.60295 19.7727C3.68483 19.9353 3.52106 20.1791 3.35729 20.1791C3.35729 20.1791 3.35729 20.1791 3.2754 20.1791Z" fill="#64AE45"/>
<path d="M17.0323 23.919H4.01241C3.84864 23.919 3.68487 23.7564 3.68487 23.5938C3.52109 22.3744 3.27544 21.1549 2.94789 19.9354C2.94789 19.7728 3.02978 19.529 3.19355 19.529C3.35732 19.4477 3.60298 19.6102 3.60298 19.7728C3.93052 20.911 4.17618 22.1305 4.33995 23.2687H16.7866C17.1142 20.3419 18.0149 17.5778 19.3251 14.9763C20.062 13.5942 20.3896 12.0495 20.3896 10.5049C20.3896 7.74075 19.3251 5.22052 17.2779 3.35067C15.3127 1.48081 12.6923 0.586536 9.90819 0.749132C4.91315 0.993026 0.818859 5.13922 0.655087 10.0984C0.655087 10.261 0.491315 10.4236 0.327544 10.4236C0.163772 10.4236 0 10.261 0 10.0984C0.163772 4.81403 4.50372 0.342642 9.82631 0.0174507C12.7742 -0.145145 15.5583 0.83043 17.6874 2.86288C19.8164 4.81403 21.0447 7.57816 21.0447 10.5049C21.0447 12.2121 20.6352 13.8381 19.8983 15.3015C18.5062 17.903 17.6874 20.7484 17.3598 23.6751C17.3598 23.8377 17.196 23.919 17.0323 23.919Z" fill="#64AE45"/>
<path d="M15.9679 29.4472H5.15895C4.50387 29.4472 3.93066 28.8782 3.93066 28.2278V27.4961C3.93066 27.3335 4.09444 27.1709 4.25821 27.1709H16.7868C16.9505 27.1709 17.1143 27.3335 17.1143 27.4961V28.2278C17.1143 28.8782 16.623 29.4472 15.9679 29.4472ZM4.58575 27.8213V28.2278C4.58575 28.4717 4.83141 28.7156 5.07707 28.7156H15.886C16.1317 28.7156 16.3773 28.4717 16.3773 28.2278V27.8213H4.58575Z" fill="#64AE45"/>
<path d="M14.4937 30.9917H6.5508C5.89571 30.9917 5.32251 30.4226 5.32251 29.7722V29.0405C5.32251 28.8779 5.48628 28.7153 5.65005 28.7153H15.3126C15.4764 28.7153 15.6401 28.8779 15.6401 29.0405V29.7722C15.722 30.5039 15.1488 30.9917 14.4937 30.9917ZM6.05948 29.447V29.8535C6.05948 30.0974 6.30514 30.3413 6.5508 30.3413H14.4937C14.7394 30.3413 14.985 30.0974 14.985 29.8535V29.447H6.05948Z" fill="#64AE45"/>
<path d="M11.3003 34H9.74443C7.94294 34 6.46899 32.5366 6.46899 30.748C6.46899 30.5854 6.63277 30.4229 6.79654 30.4229H14.2482C14.4119 30.4229 14.5757 30.5854 14.5757 30.748C14.5757 32.5366 13.1018 34 11.3003 34ZM7.12408 30.9919C7.28785 32.2927 8.43426 33.2683 9.74443 33.2683H11.3003C12.6104 33.2683 13.7568 32.2927 13.9206 30.9919H7.12408Z" fill="#64AE45"/>
<path d="M25.4665 23.1874H17.1142C17.0323 23.1874 16.9504 23.1061 16.8685 23.1061C16.7866 23.0248 16.7866 22.9435 16.7866 22.8622C17.1961 20.1794 18.0149 17.4966 19.2432 15.0576C19.3251 14.9763 19.407 14.895 19.5707 14.895H25.4665C25.6303 14.895 25.7941 15.0576 25.7941 15.2202V22.8622C25.7941 23.0248 25.7122 23.1874 25.4665 23.1874ZM17.5236 22.4557H25.139V15.4641H19.8164C18.67 17.7404 17.933 20.0981 17.5236 22.4557Z" fill="#64AE45"/>
<path d="M32.6724 11.1551H20.7171C20.6352 11.1551 20.5533 11.1551 20.4714 11.0738C20.3895 10.9925 20.3895 10.9112 20.3895 10.8299V10.7486C20.3895 10.6673 20.3895 10.586 20.3895 10.5047C20.3895 8.0658 19.4888 5.70816 17.7692 3.91961C17.6873 3.83831 17.6873 3.59441 17.7692 3.51312C17.8511 3.35052 18.0148 3.35052 18.1786 3.43182L32.7543 10.586C32.9181 10.6673 33 10.8299 32.9181 10.9925C33 10.9925 32.8362 11.1551 32.6724 11.1551ZM21.0446 10.5047H31.1985L19.2431 4.65129C20.4714 6.35854 21.0446 8.39099 21.0446 10.5047Z" fill="#64AE45"/>
<path d="M31.7717 33.9999H19.5707C19.4888 33.9999 19.4069 33.9186 19.3251 33.9186C18.7519 33.1869 18.4243 32.3739 18.4243 31.3984C18.4243 29.2033 20.3077 27.3335 22.6005 27.5774C22.7643 26.114 23.9926 25.0571 25.5484 25.0571C27.1861 25.0571 28.4963 26.3579 28.4963 27.9839V28.0652C30.7072 28.2277 32.4268 30.0163 32.4268 32.2926C32.4268 32.8617 32.3449 33.3495 32.0993 33.8373C32.0174 33.9186 31.9355 33.9999 31.7717 33.9999ZM19.7345 33.2682H31.5261C31.608 32.943 31.6898 32.5365 31.6898 32.1301C31.6898 30.1789 30.134 28.6342 28.1687 28.6342H28.0869C28.005 28.6342 27.9231 28.6342 27.8412 28.5529C27.7593 28.4716 27.7593 28.3903 27.7593 28.309C27.7593 28.1465 27.7593 28.0652 27.7593 27.9839C27.7593 26.7644 26.7767 25.7075 25.4665 25.7075C24.1563 25.7075 23.1737 26.6831 23.1737 27.9839C23.1737 28.0652 23.0918 28.2278 23.0918 28.2278C23.0099 28.309 22.928 28.309 22.8462 28.309C22.6824 28.309 22.4367 28.2278 22.273 28.2278C20.5534 28.2278 19.0794 29.6098 19.0794 31.3984C19.0794 32.0488 19.3251 32.7804 19.7345 33.2682Z" fill="#64AE45"/>
<path d="M29.2333 25.22C29.0695 25.22 28.9058 25.0574 28.9058 24.8948V24.0005C28.9058 23.8379 29.0695 23.6753 29.2333 23.6753C29.3971 23.6753 29.5608 23.8379 29.5608 24.0005V24.8948C29.5608 25.0574 29.3971 25.22 29.2333 25.22Z" fill="#64AE45"/>
<path d="M29.2333 21.8866C29.0695 21.8866 28.9058 21.7241 28.9058 21.5615V19.9355C28.9058 19.7729 29.0695 19.6103 29.2333 19.6103C29.3971 19.6103 29.5608 19.7729 29.5608 19.9355V21.5615C29.5608 21.7241 29.3971 21.8866 29.2333 21.8866ZM29.2333 17.8218C29.0695 17.8218 28.9058 17.6592 28.9058 17.4966V15.8706C28.9058 15.708 29.0695 15.5454 29.2333 15.5454C29.3971 15.5454 29.5608 15.708 29.5608 15.8706V17.4966C29.5608 17.6592 29.3971 17.8218 29.2333 17.8218Z" fill="#64AE45"/>
<path d="M29.2333 13.7566C29.0695 13.7566 28.9058 13.594 28.9058 13.4314V12.5371C28.9058 12.3745 29.0695 12.2119 29.2333 12.2119C29.3971 12.2119 29.5608 12.3745 29.5608 12.5371V13.4314C29.5608 13.594 29.3971 13.7566 29.2333 13.7566Z" fill="#64AE45"/>
<path d="M19.5707 34.0001H11.3002C11.1364 34.0001 10.9727 33.8375 10.9727 33.675C10.9727 33.5124 11.1364 33.3498 11.3002 33.3498C12.7741 33.3498 13.9205 32.2116 13.9205 30.7482C13.9205 30.5856 14.0843 30.423 14.2481 30.423H14.4938C14.7394 30.423 14.9851 30.1791 14.9851 29.9352V29.2036C14.9851 29.041 15.1488 28.8784 15.3126 28.8784H15.8858C16.1315 28.8784 16.3771 28.6345 16.3771 28.3906V27.6589C16.3771 27.4963 16.5409 27.3337 16.7047 27.3337H16.9503C17.1141 27.3337 17.2779 27.4963 17.2779 27.6589C17.2779 27.8215 17.196 27.9841 17.0322 27.9841V28.3906C17.0322 29.041 16.459 29.6101 15.8039 29.6101H15.5583V30.0165C15.5583 30.6669 15.067 31.1547 14.4119 31.236C14.33 32.1303 13.8387 32.9433 13.1017 33.5124H18.6699C18.3424 32.9433 18.1786 32.2929 18.1786 31.6425C18.1786 30.2604 18.9156 28.9597 20.2258 28.228C20.9627 27.8215 21.6178 27.6589 22.4367 27.7402C22.6005 26.2768 23.8287 25.22 25.3846 25.22C27.0223 25.22 28.3325 26.5207 28.3325 28.1467V28.228C28.4962 28.228 28.5781 28.228 28.7419 28.3093V25.1387C28.7419 24.9761 28.9057 24.8135 29.0694 24.8135C29.2332 24.8135 29.397 24.9761 29.397 25.1387V28.4719C29.397 28.5532 29.3151 28.7158 29.2332 28.7158C29.1513 28.7971 29.0694 28.7971 28.9057 28.7971C28.5781 28.7158 28.2506 28.6345 27.923 28.6345H27.8412C27.7593 28.6345 27.6774 28.6345 27.5955 28.5532C27.5136 28.4719 27.5136 28.3906 27.5136 28.3093C27.5136 28.1467 27.5136 28.0654 27.5136 27.9841C27.5136 26.7646 26.531 25.7078 25.2208 25.7078C23.9106 25.7078 22.928 26.6833 22.928 27.9841C22.928 28.0654 22.8461 28.228 22.8461 28.228C22.7642 28.3093 22.6823 28.3093 22.6005 28.3093C21.8635 28.1467 21.2084 28.3093 20.4714 28.6345C19.4069 29.2849 18.7518 30.3417 18.8337 31.3986C18.8337 32.1303 19.0794 32.862 19.5707 33.3498C19.6526 33.4311 19.6526 33.5937 19.6526 33.675C19.8163 33.9188 19.7344 34.0001 19.5707 34.0001Z" fill="#64AE45"/>
<path d="M17.0324 23.9188C16.7867 23.9188 16.7048 23.7562 16.7048 23.5123C17.0324 20.5043 17.8512 17.5776 19.3252 14.8947C19.9803 13.594 20.3897 12.2119 20.3897 10.7485C20.3897 10.5859 20.5535 10.4233 20.7172 10.4233H29.2334C29.3972 10.4233 29.5609 10.5859 29.5609 10.7485V12.4558C29.5609 12.6184 29.3972 12.781 29.2334 12.781C29.0696 12.781 28.9058 12.6184 28.9058 12.4558V11.0737H21.0448C20.9629 12.5371 20.5535 13.9192 19.8984 15.2199C18.5063 17.8215 17.6875 20.6669 17.3599 23.5936C17.3599 23.8375 17.1961 23.9188 17.0324 23.9188Z" fill="#64AE45"/>
<path d="M10.5633 18.3095C8.4343 18.3095 6.63281 16.6022 6.63281 14.4072C6.63281 12.2934 8.35242 10.5049 10.5633 10.5049C12.6924 10.5049 14.4939 12.2121 14.4939 14.4072C14.412 16.5209 12.6924 18.3095 10.5633 18.3095ZM10.5633 11.2366C8.76185 11.2366 7.36979 12.6999 7.36979 14.4072C7.36979 16.1957 8.84373 17.5778 10.5633 17.5778C12.3648 17.5778 13.7569 16.1144 13.7569 14.4072C13.7569 12.6186 12.2829 11.2366 10.5633 11.2366Z" fill="#64AE45"/>
<path d="M12.5285 14.7321C12.3647 14.7321 12.201 14.5696 12.201 14.407C12.201 13.5127 11.464 12.6997 10.4814 12.6997C10.3176 12.6997 10.1538 12.5371 10.1538 12.3745C10.1538 12.2119 10.3176 12.0493 10.4814 12.0493C11.7915 12.0493 12.856 13.1062 12.856 14.407C12.9379 14.5696 12.7742 14.7321 12.5285 14.7321Z" fill="#64AE45"/>
<path d="M10.5631 9.85447C10.3994 9.85447 10.2356 9.69187 10.2356 9.52927V7.74072C10.2356 7.57812 10.3994 7.41553 10.5631 7.41553C10.7269 7.41553 10.8907 7.57812 10.8907 7.74072V9.52927C10.8907 9.69187 10.7269 9.85447 10.5631 9.85447Z" fill="#64AE45"/>
<path d="M13.675 10.9926C13.5931 10.9926 13.5113 10.9926 13.4294 10.9113C13.2656 10.83 13.2656 10.5861 13.3475 10.4235L14.4939 9.04144C14.5758 8.87884 14.8214 8.87884 14.9852 8.96014C15.149 9.04144 15.149 9.28533 15.0671 9.44793L13.9207 10.9113C13.9207 10.9926 13.7569 10.9926 13.675 10.9926Z" fill="#64AE45"/>
<path d="M15.3947 13.9194C15.2309 13.9194 15.0671 13.8381 15.0671 13.6755C15.0671 13.5129 15.149 13.3503 15.3128 13.269L17.1143 12.9438C17.2781 12.9438 17.4418 13.0251 17.5237 13.1877C17.5237 13.3503 17.4418 13.5129 17.2781 13.5942L15.3947 13.9194Z" fill="#64AE45"/>
<path d="M16.3772 18.0656C16.2953 18.0656 16.2953 18.0656 16.2134 17.9843L14.6576 17.09C14.4938 17.0087 14.4119 16.7648 14.4938 16.6022C14.5757 16.4396 14.8213 16.3583 14.9851 16.4396L16.5409 17.3339C16.7047 17.4152 16.7866 17.6591 16.7047 17.8217C16.5409 17.9843 16.4591 18.0656 16.3772 18.0656Z" fill="#64AE45"/>
<path d="M12.8561 20.9926C12.6923 20.9926 12.6104 20.9113 12.5285 20.7487L11.8734 19.0414C11.7915 18.8788 11.8734 18.6349 12.0372 18.6349C12.201 18.5536 12.4466 18.6349 12.4466 18.7975L13.0198 20.5048C13.1017 20.6674 13.0198 20.9113 12.8561 20.9113C12.938 20.9926 12.8561 20.9926 12.8561 20.9926Z" fill="#64AE45"/>
<path d="M8.27046 20.9923H8.18857C8.0248 20.911 7.94291 20.7484 8.0248 20.5858L8.598 18.8786C8.67989 18.716 8.84366 18.6347 9.00743 18.716C9.1712 18.7973 9.25309 18.9599 9.1712 19.1225L8.598 20.8297C8.51612 20.911 8.35234 20.9923 8.27046 20.9923Z" fill="#64AE45"/>
<path d="M4.74932 18.0653C4.66743 18.0653 4.50366 17.984 4.42177 17.9027C4.33989 17.7401 4.42177 17.4962 4.58554 17.4149L6.14138 16.5207C6.30515 16.4394 6.55081 16.5207 6.63269 16.6833C6.71458 16.8459 6.63269 17.0898 6.46892 17.171L4.91309 18.0653C4.8312 18.0653 4.74932 18.0653 4.74932 18.0653Z" fill="#64AE45"/>
<path d="M5.73201 13.9196C5.65013 13.9196 5.65013 13.9196 5.73201 13.9196L3.93052 13.5944C3.76675 13.5944 3.60298 13.3505 3.68487 13.1879C3.68487 13.0253 3.93052 12.8627 4.0943 12.944L5.73201 13.2692C5.89579 13.2692 6.05956 13.5131 5.97767 13.6757C5.97767 13.757 5.89579 13.9196 5.73201 13.9196Z" fill="#64AE45"/>
<path d="M7.36992 10.9928C7.28803 10.9928 7.20615 10.9115 7.12426 10.9115L5.97786 9.52947C5.89597 9.36687 5.89597 9.20428 6.05975 9.04168C6.14163 8.96038 6.38729 8.96038 6.46917 9.12298L7.61558 10.505C7.69746 10.6676 7.69746 10.8302 7.53369 10.9928C7.53369 10.9928 7.45181 10.9928 7.36992 10.9928Z" fill="#64AE45"/>
</svg>
