<svg width="43" height="39" viewBox="0 0 43 39" fill="none" xmlns="http://www.w3.org/2000/svg">
<path d="M20.4989 33.5113H15.1597C14.969 33.5113 14.7783 33.3187 14.7783 33.1262V5.10394C14.7783 4.91134 14.969 4.71875 15.1597 4.71875H20.4989C20.6896 4.71875 20.8803 4.91134 20.8803 5.10394V33.1262C20.8803 33.3187 20.6896 33.5113 20.4989 33.5113ZM15.5411 32.741H20.0222V5.48912H15.5411V32.741Z" fill="#64AE45"/>
<path d="M21.7384 5.48889H13.9202C13.7295 5.48889 13.5388 5.2963 13.5388 5.1037V0.385185C13.5388 0.192593 13.7295 0 13.9202 0H21.7384C21.9291 0 22.1197 0.192593 22.1197 0.385185V5.1037C22.1197 5.2963 21.9291 5.48889 21.7384 5.48889ZM14.3016 4.71852H21.357V0.77037H14.3016V4.71852Z" fill="#64AE45"/>
<path d="M42.5232 4.81457H21.7383C21.5476 4.81457 21.3569 4.62198 21.3569 4.42938V1.05901C21.3569 0.866421 21.5476 0.673828 21.7383 0.673828H38.8048C38.9002 0.673828 38.9955 0.673828 39.0909 0.770124L42.8093 4.1405C42.9046 4.23679 42.9046 4.42938 42.8093 4.62198C42.8093 4.71827 42.6186 4.81457 42.5232 4.81457ZM22.1197 4.0442H41.4744L38.6141 1.4442H22.1197V4.0442Z" fill="#64AE45"/>
<path d="M20.4989 13.2891H15.1597C14.969 13.2891 14.7783 13.0965 14.7783 12.9039V9.14837C14.7783 8.95578 14.969 8.76318 15.1597 8.76318H20.4989C20.6896 8.76318 20.8803 8.95578 20.8803 9.14837V12.9039C20.8803 13.1928 20.6896 13.2891 20.4989 13.2891ZM15.5411 12.5187H20.0222V9.53355H15.5411V12.5187Z" fill="#64AE45"/>
<path d="M20.4989 21.378H15.1597C14.969 21.378 14.7783 21.1854 14.7783 20.9928V17.2372C14.7783 17.0446 14.969 16.8521 15.1597 16.8521H20.4989C20.6896 16.8521 20.8803 17.0446 20.8803 17.2372V20.9928C20.8803 21.1854 20.6896 21.378 20.4989 21.378ZM15.5411 20.6076H20.0222V17.6224H15.5411V20.6076Z" fill="#64AE45"/>
<path d="M20.4989 29.4668H15.1597C14.969 29.4668 14.7783 29.2743 14.7783 29.0817V25.3261C14.7783 25.1335 14.969 24.9409 15.1597 24.9409H20.4989C20.6896 24.9409 20.8803 25.1335 20.8803 25.3261V29.0817C20.8803 29.2743 20.6896 29.4668 20.4989 29.4668ZM15.5411 28.6002H20.0222V25.615H15.5411V28.6002Z" fill="#64AE45"/>
<path d="M20.4988 33.5108C20.4035 33.5108 20.3081 33.5109 20.2128 33.4146L14.8735 29.3701C14.7782 29.2738 14.6829 29.1775 14.6829 29.0812C14.6829 28.9849 14.7782 28.7923 14.8735 28.7923L19.7361 25.3257L14.8735 21.3775C14.7782 21.2812 14.6829 21.1849 14.6829 21.0886C14.6829 20.9923 14.7782 20.7997 14.8735 20.7997L19.7361 17.3331L14.8735 13.3849C14.7782 13.2886 14.6829 13.1923 14.6829 13.096C14.6829 12.9997 14.7782 12.8071 14.8735 12.8071L19.7361 9.34048L14.8735 5.58492C14.6829 5.48863 14.6829 5.19974 14.7782 5.00715C14.9689 4.71826 15.2549 4.62196 15.4456 4.81455L20.7849 8.859C20.8802 8.95529 20.9755 9.05159 20.9755 9.14789C20.9755 9.24418 20.8802 9.43678 20.7849 9.43678L15.9223 12.9034L20.7849 16.8516C20.8802 16.9479 20.9755 17.0442 20.9755 17.1405C20.9755 17.2368 20.8802 17.4294 20.7849 17.4294L15.9223 20.896L20.7849 24.8442C20.8802 24.9405 20.9755 25.0368 20.9755 25.1331C20.9755 25.2294 20.8802 25.422 20.7849 25.422L15.9223 28.8886L20.7849 32.6442C20.9755 32.7405 20.9755 33.0294 20.8802 33.222C20.6895 33.4146 20.5942 33.5108 20.4988 33.5108Z" fill="#64AE45"/>
<path d="M34.8958 4.81487C34.8004 4.81487 34.8005 4.81487 34.7051 4.71857L29.2705 1.4445L25.7428 4.71857C25.5521 4.81487 25.3614 4.81487 25.1707 4.71857L21.4523 1.3482C21.2617 1.15561 21.2617 0.963014 21.4523 0.770421C21.643 0.577828 21.8337 0.577828 22.0244 0.770421L25.4568 3.9482L29.0798 0.770421C29.1752 0.674125 29.3659 0.674125 29.5566 0.770421L34.9911 4.0445L38.6142 0.866717C38.8049 0.770421 38.9956 0.770421 39.1863 0.866717L42.9047 4.23709C43.0953 4.42968 43.0953 4.62227 42.9047 4.81487C42.714 5.00746 42.5233 5.00746 42.3326 4.81487L38.9002 1.63709L35.2772 4.81487C35.0865 4.81487 34.9911 4.81487 34.8958 4.81487Z" fill="#64AE45"/>
<path d="M13.9202 4.81457H0.381375C0.190687 4.81457 0 4.71827 0 4.42938V1.05901C0 0.866421 0.190687 0.673828 0.381375 0.673828H13.9202C14.1109 0.673828 14.3016 0.866421 14.3016 1.05901V4.42938C14.3016 4.71827 14.1109 4.81457 13.9202 4.81457ZM0.76275 4.0442H13.4435V1.4442H0.76275V4.0442Z" fill="#64AE45"/>
<path d="M0.381427 4.81483C0.286083 4.81483 0.19074 4.81483 0.19074 4.81483C5.22099e-05 4.62224 -0.0952915 4.42965 0.0953959 4.23706L2.47899 0.866685C2.57433 0.770389 2.66968 0.674092 2.76502 0.674092C2.86036 0.674092 3.05105 0.770389 3.05105 0.866685L5.3393 3.85187L8.67633 0.770389C8.77167 0.674092 8.86702 0.674092 8.96236 0.674092C9.0577 0.674092 9.15305 0.770389 9.24839 0.866685L11.4413 3.75557L13.5389 0.770389C13.6342 0.577796 13.9202 0.577796 14.1109 0.674092C14.3016 0.866685 14.3016 1.15557 14.2063 1.25187L11.8227 4.62224C11.7273 4.81483 11.632 4.81483 11.4413 4.81483C11.346 4.81483 11.1553 4.71854 11.1553 4.62224L8.96236 1.63706L5.62533 4.71854C5.52999 4.81483 5.3393 4.91113 5.24396 4.81483C5.14861 4.81483 5.05327 4.81483 4.95792 4.71854L2.86036 1.73335L0.762802 4.71854C0.667458 4.81483 0.476771 4.81483 0.381427 4.81483Z" fill="#64AE45"/>
<path d="M22.6919 36.0148H12.9668C12.7761 36.0148 12.5854 35.8222 12.5854 35.6296V33.1259C12.5854 32.9333 12.7761 32.7407 12.9668 32.7407H22.6919C22.8826 32.7407 23.0733 32.9333 23.0733 33.1259V35.6296C23.0733 35.8222 22.8826 36.0148 22.6919 36.0148ZM13.3482 35.2444H22.2152V33.5111H13.3482V35.2444Z" fill="#64AE45"/>
<path d="M24.7895 38.9997H10.774C10.5833 38.9997 10.3926 38.8071 10.3926 38.6145V35.6293C10.3926 35.4367 10.5833 35.2441 10.774 35.2441H24.7895C24.9802 35.2441 25.1708 35.4367 25.1708 35.6293V38.6145C25.1708 38.8071 25.0755 38.9997 24.7895 38.9997ZM11.2507 38.2293H24.5034V36.1108H11.2507V38.2293Z" fill="#64AE45"/>
<path d="M4.6719 12.9995C4.48121 12.9995 4.29053 12.8069 4.29053 12.6143V4.42913C4.29053 4.23654 4.48121 4.04395 4.6719 4.04395C4.86259 4.04395 5.05328 4.23654 5.05328 4.42913V12.6143C5.14862 12.8069 4.95793 12.9995 4.6719 12.9995Z" fill="#64AE45"/>
<path d="M6.48339 20.4142H2.95567C2.09758 20.4142 1.43018 19.7401 1.43018 18.8734V13.7697C1.43018 12.9031 2.09758 12.229 2.95567 12.229H6.48339C7.34148 12.229 8.00889 12.9031 8.00889 13.7697V18.8734C8.00889 19.7401 7.34148 20.4142 6.48339 20.4142ZM2.95567 12.9994C2.5743 12.9994 2.19293 13.2883 2.19293 13.7697V18.8734C2.19293 19.2586 2.47896 19.6438 2.95567 19.6438H6.48339C6.86477 19.6438 7.24614 19.3549 7.24614 18.8734V13.7697C7.24614 13.3846 6.96011 12.9994 6.48339 12.9994H2.95567Z" fill="#64AE45"/>
<path d="M42.5233 38.9999H9.24832C9.05763 38.9999 8.86694 38.8073 8.86694 38.6147C8.86694 38.4221 9.05763 38.2295 9.24832 38.2295H42.5233C42.714 38.2295 42.9046 38.4221 42.9046 38.6147C42.9046 38.8073 42.714 38.9999 42.5233 38.9999Z" fill="#64AE45"/>
<path d="M1.43016 38.9999H0.381375C0.190687 38.9999 0 38.8073 0 38.6147C0 38.4221 0.190687 38.2295 0.381375 38.2295H1.43016C1.62084 38.2295 1.81153 38.4221 1.81153 38.6147C1.81153 38.8073 1.71619 38.9999 1.43016 38.9999Z" fill="#64AE45"/>
<path d="M5.62551 38.9999H4.00467C3.81398 38.9999 3.62329 38.8073 3.62329 38.6147C3.62329 38.4221 3.81398 38.2295 4.00467 38.2295H5.72085C5.91154 38.2295 6.10223 38.4221 6.10223 38.6147C6.10223 38.8073 5.91154 38.9999 5.62551 38.9999Z" fill="#64AE45"/>
<path d="M9.24852 38.9999H8.19973C8.00905 38.9999 7.81836 38.8073 7.81836 38.6147C7.81836 38.4221 8.00905 38.2295 8.19973 38.2295H9.24852C9.4392 38.2295 9.62989 38.4221 9.62989 38.6147C9.62989 38.8073 9.4392 38.9999 9.24852 38.9999Z" fill="#64AE45"/>
<path d="M40.9024 37.17C40.7117 37.17 40.521 36.9774 40.521 36.7848V35.7255C40.521 35.5329 40.7117 35.3403 40.9024 35.3403C41.0931 35.3403 41.2837 35.5329 41.2837 35.7255V36.7848C41.2837 36.9774 41.0931 37.17 40.9024 37.17Z" fill="#64AE45"/>
<path d="M40.9024 32.9336C40.7117 32.9336 40.521 32.741 40.521 32.5484V30.4299C40.521 30.2373 40.7117 30.0447 40.9024 30.0447C41.0931 30.0447 41.2837 30.2373 41.2837 30.4299V32.5484C41.2837 32.741 41.0931 32.9336 40.9024 32.9336ZM40.9024 27.7336C40.7117 27.7336 40.521 27.541 40.521 27.3484V25.2299C40.521 25.0373 40.7117 24.8447 40.9024 24.8447C41.0931 24.8447 41.2837 25.0373 41.2837 25.2299V27.3484C41.2837 27.541 41.0931 27.7336 40.9024 27.7336Z" fill="#64AE45"/>
<path d="M40.9024 22.4375C40.7117 22.4375 40.521 22.2449 40.521 22.0524V20.9931C40.521 20.8005 40.7117 20.6079 40.9024 20.6079C41.0931 20.6079 41.2837 20.8005 41.2837 20.9931V22.0524C41.2837 22.2449 41.0931 22.4375 40.9024 22.4375Z" fill="#64AE45"/>
<path d="M40.9027 39.0001H26.4104C26.2197 39.0001 26.0291 38.8075 26.0291 38.6149V18.6816C26.0291 18.489 26.2197 18.2964 26.4104 18.2964H40.9027C41.0934 18.2964 41.284 18.489 41.284 18.6816V20.9927C41.284 21.1853 41.0934 21.3779 40.9027 21.3779C40.712 21.3779 40.5213 21.1853 40.5213 20.9927V19.0668H26.7918V38.2297H40.5213V36.7853C40.5213 36.5927 40.712 36.4001 40.9027 36.4001C41.0934 36.4001 41.284 36.5927 41.284 36.7853V38.6149C41.284 38.8075 41.0934 39.0001 40.9027 39.0001Z" fill="#64AE45"/>
<path d="M36.8978 38.9998H30.3191C30.1284 38.9998 29.9377 38.8072 29.9377 38.6146V33.3183C29.9377 33.1257 30.1284 32.9331 30.3191 32.9331H36.8978C37.0885 32.9331 37.2792 33.1257 37.2792 33.3183V38.6146C37.2792 38.8072 37.0885 38.9998 36.8978 38.9998ZM30.7958 38.2294H36.5165V33.7035H30.7958V38.2294Z" fill="#64AE45"/>
<path d="M36.3261 7.02913H31.1775C30.9868 7.02913 30.7961 6.83654 30.7961 6.64395V4.42913C30.7961 4.23654 30.9868 4.04395 31.1775 4.04395H36.3261C36.5168 4.04395 36.7075 4.23654 36.7075 4.42913V6.64395C36.7075 6.83654 36.5168 7.02913 36.3261 7.02913ZM31.5589 6.25876H35.9447V4.81432H31.5589V6.25876Z" fill="#64AE45"/>
<path d="M42.5234 15.4074H24.8848C24.6941 15.4074 24.5034 15.2148 24.5034 15.0223V12.9037C24.5034 12.7111 24.6941 12.5186 24.8848 12.5186H42.6187C42.8094 12.5186 43.0001 12.7111 43.0001 12.9037V15.0223C43.0001 15.2148 42.8094 15.4074 42.5234 15.4074ZM25.2662 14.6371H42.142V13.3852H25.2662V14.6371Z" fill="#64AE45"/>
<path d="M33.7518 9.14817C32.7984 9.14817 32.0356 8.3778 32.0356 7.41483V6.64446C32.0356 6.45187 32.2263 6.25928 32.417 6.25928H34.9913C35.182 6.25928 35.3727 6.45187 35.3727 6.64446V7.51113C35.3727 8.47409 34.6099 9.14817 33.7518 9.14817ZM32.7984 7.02965V7.51113C32.7984 7.99261 33.1798 8.3778 33.6565 8.3778C34.1332 8.3778 34.5146 7.99261 34.5146 7.51113V7.02965H32.7984Z" fill="#64AE45"/>
<path d="M33.7517 13.2886C33.5611 13.2886 33.3704 13.096 33.3704 12.9034V8.76263C33.3704 8.57003 33.5611 8.37744 33.7517 8.37744C33.9424 8.37744 34.1331 8.57003 34.1331 8.76263V12.9034C34.1331 13.1923 33.9424 13.2886 33.7517 13.2886Z" fill="#64AE45"/>
<path d="M33.6563 38.9998C33.4656 38.9998 33.2749 38.8072 33.2749 38.6146V33.3183C33.2749 33.1257 33.4656 32.9331 33.6563 32.9331C33.847 32.9331 34.0377 33.1257 34.0377 33.3183V38.6146C34.0377 38.8072 33.847 38.9998 33.6563 38.9998Z" fill="#64AE45"/>
<path d="M39.2816 25.2301H28.031C27.8403 25.2301 27.6497 25.0375 27.6497 24.8449V20.9931C27.6497 20.8005 27.8403 20.6079 28.031 20.6079H39.2816C39.4723 20.6079 39.663 20.8005 39.663 20.9931V24.8449C39.663 25.0375 39.4723 25.2301 39.2816 25.2301ZM28.4124 24.3635H38.9002V21.3783H28.4124V24.3635Z" fill="#64AE45"/>
<path d="M39.2816 30.4298H28.031C27.8403 30.4298 27.6497 30.2372 27.6497 30.0447V26.1928C27.6497 26.0002 27.8403 25.8076 28.031 25.8076H39.2816C39.4723 25.8076 39.663 26.0002 39.663 26.1928V30.0447C39.663 30.3335 39.4723 30.4298 39.2816 30.4298ZM28.4124 29.6595H38.9002V26.6743H28.4124V29.6595Z" fill="#64AE45"/>
</svg>
