<svg width="43" height="33" viewBox="0 0 43 33" fill="none" xmlns="http://www.w3.org/2000/svg">
<path d="M42.602 18.7028C42.4029 18.7028 42.2039 18.5075 42.2039 18.3122V4.63919C42.2039 4.44386 42.4029 4.24854 42.602 4.24854C42.8011 4.24854 43.0002 4.44386 43.0002 4.63919V18.3122C43.0002 18.6052 42.8011 18.7028 42.602 18.7028Z" fill="#64AE45"/>
<path d="M39.2176 22.8046H3.78241C1.69213 22.8046 0 21.1443 0 19.0934V3.76007C0 1.70912 1.69213 0.0488281 3.78241 0.0488281H7.96296C8.16204 0.0488281 8.36111 0.244157 8.36111 0.439485C8.36111 0.634814 8.16204 0.830142 7.96296 0.830142H3.78241C2.18981 0.830142 0.895833 2.09978 0.895833 3.66241V18.9957C0.895833 20.5583 2.18981 21.828 3.78241 21.828H39.3171C40.9097 21.828 42.2037 20.5583 42.2037 18.9957V18.312C42.2037 18.1167 42.4028 17.9214 42.6018 17.9214C42.8009 17.9214 43 18.1167 43 18.312V18.9957C43 21.1443 41.3079 22.8046 39.2176 22.8046Z" fill="#64AE45"/>
<path d="M42.602 5.02971C42.4029 5.02971 42.2038 4.83438 42.2038 4.63905V3.76007C42.2038 2.19744 40.9098 0.927806 39.3173 0.927806H24.0881C23.889 0.927806 23.6899 0.732478 23.6899 0.537149C23.6899 0.341821 23.889 0.0488281 24.0881 0.0488281H39.2177C41.308 0.0488281 43.0001 1.70912 43.0001 3.76007V4.63905C43.0001 4.83438 42.801 5.02971 42.602 5.02971Z" fill="#64AE45"/>
<path d="M30.6575 25.1482H12.4422C10.8496 25.1482 9.55566 23.8786 9.55566 22.3159C9.55566 22.1206 9.75474 21.9253 9.95381 21.9253H33.0464C33.2455 21.9253 33.4445 22.1206 33.4445 22.3159C33.4445 23.8786 32.1506 25.1482 30.6575 25.1482ZM10.4515 22.8043C10.6506 23.6832 11.4469 24.3669 12.4422 24.3669H30.6575C31.6529 24.3669 32.4492 23.6832 32.6483 22.8043H10.4515Z" fill="#64AE45"/>
<path d="M28.368 32.9619C28.1689 32.9619 28.0693 32.8642 27.9698 32.7666L25.78 28.0787H17.3193L15.1295 32.7666C15.03 32.9619 14.8309 33.0596 14.5323 32.9619C14.3332 32.8642 14.2337 32.6689 14.3332 32.3759L16.7221 27.4927C16.8217 27.395 16.9212 27.2974 17.1203 27.2974H26.1781C26.3772 27.2974 26.4768 27.395 26.5763 27.4927L28.9652 32.3759C29.0647 32.5712 28.9652 32.8642 28.7661 32.9619C28.4675 32.9619 28.4675 32.9619 28.368 32.9619Z" fill="#64AE45"/>
<path d="M38.0233 22.8046H4.97701C4.77793 22.8046 4.57886 22.6093 4.57886 22.4139V14.1125C4.57886 13.9172 4.77793 13.7218 4.97701 13.7218C6.17145 13.7218 7.16682 12.7452 7.16682 11.5732C7.16682 10.4012 6.17145 9.4246 4.97701 9.4246C4.77793 9.4246 4.57886 9.22927 4.57886 9.03394V0.439485C4.57886 0.244157 4.77793 0.0488281 4.97701 0.0488281H7.16682C7.36589 0.0488281 7.56497 0.244157 7.56497 0.439485C7.56497 0.634814 7.36589 0.830142 7.16682 0.830142H5.37515V8.54562C6.86821 8.74095 7.96312 10.0106 7.96312 11.4755C7.96312 12.9405 6.86821 14.2101 5.37515 14.4055V21.9256H37.6252V0.830142H25.5812C25.3821 0.830142 25.183 0.634814 25.183 0.439485C25.183 0.244157 25.3821 0.0488281 25.5812 0.0488281H38.0233C38.2224 0.0488281 38.4215 0.244157 38.4215 0.439485V22.3163C38.4215 22.6093 38.3219 22.8046 38.0233 22.8046Z" fill="#64AE45"/>
<path d="M4.97683 14.4053C3.2847 14.4053 1.99072 13.1356 1.99072 11.4753C1.99072 9.81505 3.2847 8.54541 4.97683 8.54541C6.66896 8.54541 7.96294 9.81505 7.96294 11.4753C7.96294 13.1356 6.56943 14.4053 4.97683 14.4053ZM4.97683 9.32672C3.78239 9.32672 2.78702 10.3034 2.78702 11.4753C2.78702 12.6473 3.78239 13.624 4.97683 13.624C6.17128 13.624 7.16665 12.6473 7.16665 11.4753C7.16665 10.3034 6.17128 9.32672 4.97683 9.32672Z" fill="#64AE45"/>
<path d="M40.3125 15.1867C40.1134 15.1867 39.9143 14.9913 39.9143 14.796V8.05716C39.9143 7.86183 40.1134 7.6665 40.3125 7.6665C40.5115 7.6665 40.7106 7.86183 40.7106 8.05716V14.796C40.7106 14.9913 40.5115 15.1867 40.3125 15.1867Z" fill="#64AE45"/>
<path d="M27.273 28.0784H15.7267C14.9304 28.0784 14.2336 27.3948 14.2336 26.6135V24.7578C14.2336 24.5625 14.4327 24.3672 14.6318 24.3672H28.2684C28.4674 24.3672 28.6665 24.5625 28.6665 24.7578V26.6135C28.766 27.3948 28.0693 28.0784 27.273 28.0784ZM15.1295 25.1485V26.6135C15.1295 27.0041 15.4281 27.2971 15.8262 27.2971H27.3725C27.7707 27.2971 28.0693 27.0041 28.0693 26.6135V25.1485H15.1295Z" fill="#64AE45"/>
<path d="M11.1483 17.2377H4.97701C4.77793 17.2377 4.57886 17.0424 4.57886 16.8471C4.57886 16.6518 4.77793 16.4564 4.97701 16.4564H10.7502V11.7685C10.7502 11.5732 10.9492 11.3779 11.1483 11.3779H14.6321V6.20168C14.6321 6.00635 14.8312 5.81102 15.0302 5.81102H23.9886L29.5627 0.146496C29.7617 -0.0488321 29.9608 -0.0488321 30.1599 0.146496C30.359 0.341825 30.359 0.537153 30.1599 0.732482L24.3867 6.49467C24.2872 6.59234 24.1877 6.59234 24.0881 6.59234H15.4284V11.6709C15.4284 11.8662 15.2293 12.0615 15.0302 12.0615H11.5465V16.7494C11.5465 17.0424 11.3474 17.2377 11.1483 17.2377Z" fill="#64AE45"/>
<path d="M16.8218 17.2379H11.1481C10.9491 17.2379 10.75 17.0425 10.75 16.8472C10.75 16.6519 10.9491 16.4565 11.1481 16.4565H16.8218C17.0208 16.4565 17.2199 16.6519 17.2199 16.8472C17.2199 17.0425 17.0208 17.2379 16.8218 17.2379Z" fill="#64AE45"/>
<path d="M21.102 12.0616H15.0302C14.8312 12.0616 14.6321 11.8663 14.6321 11.6709C14.6321 11.4756 14.8312 11.2803 15.0302 11.2803H21.102C21.3011 11.2803 21.5001 11.4756 21.5001 11.6709C21.5997 11.9639 21.4006 12.0616 21.102 12.0616Z" fill="#64AE45"/>
<path d="M27.5717 6.59235H24.1875C23.9884 6.59235 23.7893 6.39702 23.7893 6.20169C23.7893 6.00636 23.9884 5.81104 24.1875 5.81104H27.5717C27.7708 5.81104 27.9699 6.00636 27.9699 6.20169C27.9699 6.39702 27.7708 6.59235 27.5717 6.59235Z" fill="#64AE45"/>
<path d="M27.273 17.2379H20.405C20.2059 17.2379 20.0068 17.0425 20.0068 16.8472C20.0068 16.6519 20.2059 16.4565 20.405 16.4565H27.273C27.4721 16.4565 27.6712 16.6519 27.6712 16.8472C27.6712 17.0425 27.4721 17.2379 27.273 17.2379Z" fill="#64AE45"/>
<path d="M30.956 12.0616H23.8889C23.6898 12.0616 23.4907 11.8663 23.4907 11.6709C23.4907 11.4756 23.6898 11.2803 23.8889 11.2803H30.956C31.1551 11.2803 31.3542 11.4756 31.3542 11.6709C31.3542 11.9639 31.1551 12.0616 30.956 12.0616Z" fill="#64AE45"/>
<path d="M38.023 6.59235H30.4582C30.2591 6.59235 30.0601 6.39702 30.0601 6.20169C30.0601 6.00636 30.2591 5.81104 30.4582 5.81104H38.023C38.2221 5.81104 38.4212 6.00636 38.4212 6.20169C38.4212 6.39702 38.3216 6.59235 38.023 6.59235Z" fill="#64AE45"/>
<path d="M25.5809 0.830142H24.486C24.287 0.830142 24.0879 0.634814 24.0879 0.439485C24.0879 0.244157 24.287 0.0488281 24.486 0.0488281H25.5809C25.78 0.0488281 25.9791 0.244157 25.9791 0.439485C25.9791 0.634814 25.78 0.830142 25.5809 0.830142Z" fill="#64AE45"/>
<path d="M20.7036 0.830142H18.2151C18.016 0.830142 17.817 0.634814 17.817 0.439485C17.817 0.244157 18.016 0.0488281 18.2151 0.0488281H20.7036C20.9026 0.0488281 21.1017 0.244157 21.1017 0.439485C21.1017 0.634814 21.0022 0.830142 20.7036 0.830142ZM14.5323 0.830142H11.9443C11.7452 0.830142 11.5461 0.634814 11.5461 0.439485C11.5461 0.244157 11.7452 0.0488281 11.9443 0.0488281H14.4327C14.7313 0.0488281 14.9304 0.244157 14.9304 0.439485C14.9304 0.634814 14.7313 0.830142 14.5323 0.830142Z" fill="#64AE45"/>
<path d="M8.26137 0.830142H7.16646C6.96738 0.830142 6.76831 0.634814 6.76831 0.439485C6.76831 0.244157 6.86785 0.0488281 7.16646 0.0488281H8.26137C8.46044 0.0488281 8.65951 0.244157 8.65951 0.439485C8.65951 0.634814 8.46044 0.830142 8.26137 0.830142Z" fill="#64AE45"/>
<path d="M38.023 17.2379H35.9327C35.7337 17.2379 35.5346 17.0425 35.5346 16.8472C35.5346 16.6519 35.7337 16.4565 35.9327 16.4565H38.023C38.2221 16.4565 38.4212 16.6519 38.4212 16.8472C38.4212 17.0425 38.3216 17.2379 38.023 17.2379ZM32.648 17.2379H30.4582C30.2591 17.2379 30.0601 17.0425 30.0601 16.8472C30.0601 16.6519 30.2591 16.4565 30.4582 16.4565H32.648C32.8471 16.4565 33.0462 16.6519 33.0462 16.8472C33.0462 17.0425 32.8471 17.2379 32.648 17.2379Z" fill="#64AE45"/>
</svg>
