<svg width="641" height="588" viewBox="0 0 641 588" fill="none" xmlns="http://www.w3.org/2000/svg">
<ellipse cx="523" cy="469" rx="118" ry="119" fill="#1C1F2A"/>
<ellipse cx="118" cy="467.5" rx="118" ry="117.5" fill="#1C1F2A"/>
<path d="M246 249L240.732 251.363L245.413 254.744L246 249ZM181.405 339.293L243.771 252.941L242.96 252.355L180.595 338.707L181.405 339.293Z" fill="#64AE45"/>
<path d="M423.66 240.047C423.528 239.804 423.225 239.714 422.982 239.845C422.739 239.976 422.648 240.279 422.779 240.522L423.66 240.047ZM477.036 340.046L477.203 334.275L472.122 337.016L477.036 340.046ZM422.779 240.522L474.46 336.323L475.34 335.848L423.66 240.047L422.779 240.522Z" fill="#64AE45"/>
<ellipse cx="327.156" cy="119.413" rx="118.156" ry="119.413" fill="#1C1F2A"/>
<g clip-path="url(#clip0_88_5108)">
<path d="M321.365 172.663H303.884C303.26 172.663 302.635 172.018 302.635 171.372V77.443C302.635 76.7974 303.26 76.1519 303.884 76.1519H321.365C321.989 76.1519 322.613 76.7974 322.613 77.443V171.372C322.613 172.018 321.989 172.663 321.365 172.663ZM305.132 170.081H319.804V78.7341H305.132V170.081Z" fill="white"/>
<path d="M325.423 78.734H299.826C299.202 78.734 298.578 78.0884 298.578 77.4428V61.6266C298.578 60.981 299.202 60.3354 299.826 60.3354H325.423C326.047 60.3354 326.672 60.981 326.672 61.6266V77.4428C326.672 78.0884 326.047 78.734 325.423 78.734ZM301.075 76.1517H324.174V62.9177H301.075V76.1517Z" fill="white"/>
<path d="M393.472 76.4738H325.422C324.798 76.4738 324.173 75.8283 324.173 75.1827V63.8854C324.173 63.2398 324.798 62.5942 325.422 62.5942H381.298C381.61 62.5942 381.922 62.5942 382.234 62.917L394.408 74.2144C394.72 74.5371 394.72 75.1827 394.408 75.8283C394.408 76.151 393.784 76.4738 393.472 76.4738ZM326.671 73.8916H390.038L380.673 65.1765H326.671V73.8916Z" fill="white"/>
<path d="M321.365 104.88H303.884C303.26 104.88 302.635 104.234 302.635 103.589V91.0001C302.635 90.3545 303.26 89.709 303.884 89.709H321.365C321.989 89.709 322.613 90.3545 322.613 91.0001V103.589C322.613 104.557 321.989 104.88 321.365 104.88ZM305.132 102.297H319.804V92.2912H305.132V102.297Z" fill="white"/>
<path d="M321.365 131.993H303.884C303.26 131.993 302.635 131.348 302.635 130.702V118.114C302.635 117.468 303.26 116.823 303.884 116.823H321.365C321.989 116.823 322.613 117.468 322.613 118.114V130.702C322.613 131.348 321.989 131.993 321.365 131.993ZM305.132 129.411H319.804V119.405H305.132V129.411Z" fill="white"/>
<path d="M321.365 159.106H303.884C303.26 159.106 302.635 158.461 302.635 157.815V145.227C302.635 144.581 303.26 143.936 303.884 143.936H321.365C321.989 143.936 322.613 144.581 322.613 145.227V157.815C322.613 158.461 321.989 159.106 321.365 159.106ZM305.132 156.201H319.804V146.195H305.132V156.201Z" fill="white"/>
<path d="M321.364 172.663C321.052 172.663 320.74 172.663 320.428 172.34L302.947 158.784C302.635 158.461 302.323 158.138 302.323 157.815C302.323 157.493 302.635 156.847 302.947 156.847L318.867 145.227L302.947 131.993C302.635 131.67 302.323 131.347 302.323 131.024C302.323 130.702 302.635 130.056 302.947 130.056L318.867 118.436L302.947 105.202C302.635 104.879 302.323 104.556 302.323 104.234C302.323 103.911 302.635 103.265 302.947 103.265L318.867 91.6452L302.947 79.0568C302.323 78.734 302.323 77.7657 302.635 77.1201C303.259 76.1517 304.196 75.829 304.82 76.4745L322.301 90.0313C322.613 90.3541 322.925 90.6769 322.925 90.9997C322.925 91.3224 322.613 91.968 322.301 91.968L306.381 103.588L322.301 116.822C322.613 117.145 322.925 117.468 322.925 117.79C322.925 118.113 322.613 118.759 322.301 118.759L306.381 130.379L322.301 143.613C322.613 143.936 322.925 144.259 322.925 144.581C322.925 144.904 322.613 145.55 322.301 145.55L306.381 157.17L322.301 169.758C322.925 170.081 322.925 171.049 322.613 171.695C321.989 172.34 321.676 172.663 321.364 172.663Z" fill="white"/>
<path d="M368.5 76.4746C368.188 76.4746 368.188 76.4746 367.876 76.1518L350.083 65.1772L338.533 76.1518C337.909 76.4746 337.285 76.4746 336.66 76.1518L324.486 64.8545C323.862 64.2089 323.862 63.5633 324.486 62.9178C325.111 62.2722 325.735 62.2722 326.359 62.9178L337.597 73.5695L349.459 62.9178C349.771 62.595 350.395 62.595 351.019 62.9178L368.812 73.8923L380.674 63.2405C381.299 62.9178 381.923 62.9178 382.547 63.2405L394.721 74.5379C395.346 75.1834 395.346 75.829 394.721 76.4746C394.097 77.1201 393.473 77.1201 392.848 76.4746L381.611 65.8228L369.749 76.4746C369.124 76.4746 368.812 76.4746 368.5 76.4746Z" fill="white"/>
<path d="M299.826 76.4738H255.5C254.876 76.4738 254.251 76.151 254.251 75.1827V63.8854C254.251 63.2398 254.876 62.5942 255.5 62.5942H299.826C300.45 62.5942 301.075 63.2398 301.075 63.8854V75.1827C301.075 76.151 300.45 76.4738 299.826 76.4738ZM256.748 73.8916H298.265V65.1765H256.748V73.8916Z" fill="white"/>
<path d="M255.5 76.4744C255.188 76.4744 254.875 76.4744 254.875 76.4744C254.251 75.8288 253.939 75.1833 254.563 74.5377L262.367 63.2404C262.679 62.9176 262.991 62.5948 263.304 62.5948C263.616 62.5948 264.24 62.9176 264.24 63.2404L271.732 73.2466L282.657 62.9176C282.969 62.5948 283.282 62.5948 283.594 62.5948C283.906 62.5948 284.218 62.9176 284.53 63.2404L291.71 72.9238L298.577 62.9176C298.889 62.2721 299.826 62.2721 300.45 62.5948C301.074 63.2404 301.074 64.2087 300.762 64.5315L292.958 75.8288C292.646 76.4744 292.334 76.4744 291.71 76.4744C291.398 76.4744 290.773 76.1516 290.773 75.8288L283.594 65.8226L272.668 76.1516C272.356 76.4744 271.732 76.7972 271.42 76.4744C271.107 76.4744 270.795 76.4744 270.483 76.1516L263.616 66.1454L256.748 76.1516C256.436 76.4744 255.812 76.4744 255.5 76.4744Z" fill="white"/>
<path d="M328.545 181.056H296.705C296.08 181.056 295.456 180.41 295.456 179.764V171.372C295.456 170.727 296.08 170.081 296.705 170.081H328.545C329.169 170.081 329.793 170.727 329.793 171.372V179.764C329.793 180.41 329.169 181.056 328.545 181.056ZM297.953 178.473H326.984V172.663H297.953V178.473Z" fill="white"/>
<path d="M335.411 191.062H289.524C288.9 191.062 288.276 190.416 288.276 189.77V179.764C288.276 179.119 288.9 178.473 289.524 178.473H335.411C336.035 178.473 336.66 179.119 336.66 179.764V189.77C336.66 190.416 336.348 191.062 335.411 191.062ZM291.085 188.479H334.475V181.378H291.085V188.479Z" fill="white"/>
<path d="M269.546 103.909C268.922 103.909 268.298 103.264 268.298 102.618V75.1817C268.298 74.5362 268.922 73.8906 269.546 73.8906C270.171 73.8906 270.795 74.5362 270.795 75.1817V102.618C271.107 103.264 270.483 103.909 269.546 103.909Z" fill="white"/>
<path d="M275.478 128.764H263.928C261.118 128.764 258.933 126.504 258.933 123.599V106.492C258.933 103.587 261.118 101.327 263.928 101.327H275.478C278.287 101.327 280.472 103.587 280.472 106.492V123.599C280.472 126.504 278.287 128.764 275.478 128.764ZM263.928 103.909C262.679 103.909 261.431 104.878 261.431 106.492V123.599C261.431 124.89 262.367 126.181 263.928 126.181H275.478C276.726 126.181 277.975 125.213 277.975 123.599V106.492C277.975 105.201 277.038 103.909 275.478 103.909H263.928Z" fill="white"/>
<path d="M393.473 191.06H284.531C283.906 191.06 283.282 190.415 283.282 189.769C283.282 189.124 283.906 188.478 284.531 188.478H393.473C394.097 188.478 394.722 189.124 394.722 189.769C394.722 190.415 394.097 191.06 393.473 191.06Z" fill="white"/>
<path d="M258.934 191.06H255.5C254.876 191.06 254.251 190.415 254.251 189.769C254.251 189.124 254.876 188.478 255.5 188.478H258.934C259.558 188.478 260.182 189.124 260.182 189.769C260.182 190.415 259.87 191.06 258.934 191.06Z" fill="white"/>
<path d="M272.669 191.06H267.362C266.738 191.06 266.113 190.415 266.113 189.769C266.113 189.124 266.738 188.478 267.362 188.478H272.981C273.605 188.478 274.229 189.124 274.229 189.769C274.229 190.415 273.605 191.06 272.669 191.06Z" fill="white"/>
<path d="M284.53 191.06H281.097C280.472 191.06 279.848 190.415 279.848 189.769C279.848 189.124 280.472 188.478 281.097 188.478H284.53C285.155 188.478 285.779 189.124 285.779 189.769C285.779 190.415 285.155 191.06 284.53 191.06Z" fill="white"/>
<path d="M388.166 184.928C387.541 184.928 386.917 184.282 386.917 183.637V180.086C386.917 179.44 387.541 178.795 388.166 178.795C388.79 178.795 389.414 179.44 389.414 180.086V183.637C389.414 184.282 388.79 184.928 388.166 184.928Z" fill="white"/>
<path d="M388.166 170.727C387.541 170.727 386.917 170.081 386.917 169.436V162.335C386.917 161.689 387.541 161.043 388.166 161.043C388.79 161.043 389.414 161.689 389.414 162.335V169.436C389.414 170.081 388.79 170.727 388.166 170.727ZM388.166 153.297C387.541 153.297 386.917 152.651 386.917 152.006V144.904C386.917 144.259 387.541 143.613 388.166 143.613C388.79 143.613 389.414 144.259 389.414 144.904V152.006C389.414 152.651 388.79 153.297 388.166 153.297Z" fill="white"/>
<path d="M388.166 135.544C387.541 135.544 386.917 134.899 386.917 134.253V130.703C386.917 130.057 387.541 129.412 388.166 129.412C388.79 129.412 389.414 130.057 389.414 130.703V134.253C389.414 134.899 388.79 135.544 388.166 135.544Z" fill="white"/>
<path d="M388.166 191.061H340.718C340.094 191.061 339.469 190.416 339.469 189.77V122.955C339.469 122.309 340.094 121.664 340.718 121.664H388.166C388.79 121.664 389.414 122.309 389.414 122.955V130.701C389.414 131.347 388.79 131.993 388.166 131.993C387.541 131.993 386.917 131.347 386.917 130.701V124.246H341.967V188.479H386.917V183.637C386.917 182.992 387.541 182.346 388.166 182.346C388.79 182.346 389.414 182.992 389.414 183.637V189.77C389.414 190.416 388.79 191.061 388.166 191.061Z" fill="white"/>
<path d="M375.055 191.06H353.516C352.892 191.06 352.268 190.415 352.268 189.769V172.016C352.268 171.371 352.892 170.725 353.516 170.725H375.055C375.679 170.725 376.304 171.371 376.304 172.016V189.769C376.304 190.415 375.679 191.06 375.055 191.06ZM355.077 188.478H373.806V173.307H355.077V188.478Z" fill="white"/>
<path d="M373.182 83.8968H356.326C355.702 83.8968 355.077 83.2513 355.077 82.6057V75.1817C355.077 74.5362 355.702 73.8906 356.326 73.8906H373.182C373.807 73.8906 374.431 74.5362 374.431 75.1817V82.6057C374.431 83.2513 373.807 83.8968 373.182 83.8968ZM357.575 81.3146H371.934V76.4729H357.575V81.3146Z" fill="white"/>
<path d="M393.472 111.981H335.724C335.099 111.981 334.475 111.335 334.475 110.69V103.588C334.475 102.943 335.099 102.297 335.724 102.297H393.785C394.409 102.297 395.033 102.943 395.033 103.588V110.69C395.033 111.335 394.409 111.981 393.472 111.981ZM336.972 109.399H392.224V105.202H336.972V109.399Z" fill="white"/>
<path d="M364.754 90.9998C361.632 90.9998 359.135 88.4176 359.135 85.1898V82.6075C359.135 81.962 359.759 81.3164 360.384 81.3164H368.812C369.436 81.3164 370.06 81.962 370.06 82.6075V85.5126C370.06 88.7404 367.563 90.9998 364.754 90.9998ZM361.632 83.8987V85.5126C361.632 87.1265 362.881 88.4176 364.442 88.4176C366.002 88.4176 367.251 87.1265 367.251 85.5126V83.8987H361.632Z" fill="white"/>
<path d="M364.754 104.878C364.129 104.878 363.505 104.232 363.505 103.587V89.7071C363.505 89.0616 364.129 88.416 364.754 88.416C365.378 88.416 366.002 89.0616 366.002 89.7071V103.587C366.002 104.555 365.378 104.878 364.754 104.878Z" fill="white"/>
<path d="M364.442 191.06C363.817 191.06 363.193 190.415 363.193 189.769V172.016C363.193 171.371 363.817 170.725 364.442 170.725C365.066 170.725 365.69 171.371 365.69 172.016V189.769C365.69 190.415 365.066 191.06 364.442 191.06Z" fill="white"/>
<path d="M382.859 144.905H346.024C345.4 144.905 344.776 144.26 344.776 143.614V130.703C344.776 130.057 345.4 129.412 346.024 129.412H382.859C383.483 129.412 384.107 130.057 384.107 130.703V143.614C384.107 144.26 383.483 144.905 382.859 144.905ZM347.273 142H381.61V131.994H347.273V142V142Z" fill="white"/>
<path d="M382.859 162.335H346.024C345.4 162.335 344.776 161.689 344.776 161.044V148.132C344.776 147.487 345.4 146.841 346.024 146.841H382.859C383.483 146.841 384.107 147.487 384.107 148.132V161.044C384.107 162.012 383.483 162.335 382.859 162.335ZM347.273 159.753H381.61V149.746H347.273V159.753V159.753Z" fill="white"/>
</g>
<path d="M78.5442 533.288H75.3158C74.7288 533.288 74.1418 532.698 74.1418 532.109C74.1418 531.519 74.7288 530.93 75.3158 530.93H78.5442C79.1312 530.93 79.7182 531.519 79.7182 532.109C79.7182 532.698 79.1312 533.288 78.5442 533.288Z" fill="white"/>
<path d="M62.4024 533.288H59.174C58.587 533.288 58 532.698 58 532.109C58 531.519 58.587 530.93 59.174 530.93H62.4024C62.9893 530.93 63.5763 531.519 63.5763 532.109C63.5763 532.698 63.2828 533.288 62.4024 533.288Z" fill="white"/>
<path d="M175.103 533.288H78.5443C77.9573 533.288 77.3704 532.698 77.3704 532.109C77.3704 531.519 77.9573 530.93 78.5443 530.93H175.103C175.69 530.93 176.277 531.519 176.277 532.109C176.277 532.698 175.69 533.288 175.103 533.288Z" fill="white"/>
<path d="M118.166 510.885H73.5554C68.8595 510.885 65.3376 507.052 65.3376 502.63C65.3376 497.914 69.153 494.376 73.5554 494.376H118.166C122.862 494.376 126.384 498.208 126.384 502.63C126.384 507.347 122.568 510.885 118.166 510.885ZM73.5554 496.734C70.327 496.734 67.6856 499.388 67.6856 502.63C67.6856 505.873 70.327 508.526 73.5554 508.526H118.166C121.394 508.526 124.036 505.873 124.036 502.63C124.036 499.388 121.394 496.734 118.166 496.734H73.5554Z" fill="white"/>
<path d="M59.174 451.334C58.587 451.334 58 450.745 58 450.155C58 448.976 58 447.797 58 446.912C58 446.028 58.587 445.438 59.174 445.438C59.7609 445.438 60.3479 446.028 60.3479 446.618C60.3479 447.797 60.3479 448.681 60.3479 449.86C60.6414 450.745 60.0544 451.04 59.174 451.334Z" fill="white"/>
<path d="M64.7504 469.317C64.1634 469.317 63.8699 469.022 63.5764 468.727C62.9895 467.548 62.4025 466.369 61.8155 465.19C61.2285 464.011 60.6415 462.831 60.348 461.947C60.0546 461.357 60.348 460.473 60.935 460.473C61.522 460.178 62.4025 460.473 62.4025 461.063C62.696 462.242 63.283 463.126 63.8699 464.305C64.4569 465.485 65.0439 466.664 65.6309 468.138C65.9244 468.727 65.6309 469.612 65.0439 469.907C65.0439 469.317 65.0439 469.317 64.7504 469.317Z" fill="white"/>
<path d="M69.7399 483.173C69.1529 483.173 68.566 482.878 68.566 482.288C68.2725 481.109 67.979 480.225 67.6855 479.34C67.392 478.751 67.979 477.866 68.566 477.866C69.1529 477.277 69.7399 477.866 70.0334 478.456C70.3269 479.635 70.6204 480.519 70.9139 481.699C71.2074 482.288 70.6204 483.173 70.0334 483.173C70.0334 483.173 70.0334 483.173 69.7399 483.173Z" fill="white"/>
<path d="M119.046 496.733H72.381C71.794 496.733 71.2071 496.144 71.2071 495.554C70.6201 491.132 69.7396 486.71 68.5657 482.288C68.5657 481.699 68.8591 480.814 69.4461 480.814C70.0331 480.52 70.9136 481.109 70.9136 481.699C72.0875 485.826 72.968 490.248 73.555 494.375H118.166C119.339 483.762 122.568 473.739 127.264 464.306C129.905 459.294 131.079 453.693 131.079 448.092C131.079 438.069 127.264 428.93 119.926 422.15C112.883 415.37 103.491 412.127 93.5123 412.716C75.6094 413.601 60.9349 428.635 60.3479 446.618C60.3479 447.208 59.7609 447.797 59.174 447.797C58.587 447.797 58 447.208 58 446.618C58.587 427.456 74.142 411.242 93.2188 410.063C103.784 409.474 113.763 413.011 121.394 420.381C129.025 427.456 133.427 437.479 133.427 448.092C133.427 454.283 131.96 460.179 129.318 465.485C124.329 474.918 121.394 485.236 120.22 495.849C120.22 496.439 119.633 496.733 119.046 496.733Z" fill="white"/>
<path d="M115.23 516.779H76.4898C74.1418 516.779 72.0874 514.715 72.0874 512.357V509.704C72.0874 509.114 72.6744 508.524 73.2614 508.524H118.165C118.752 508.524 119.339 509.114 119.339 509.704V512.357C119.339 514.715 117.578 516.779 115.23 516.779ZM74.4353 510.883V512.357C74.4353 513.241 75.3158 514.126 76.1963 514.126H114.937C115.817 514.126 116.698 513.241 116.698 512.357V510.883H74.4353Z" fill="white"/>
<path d="M109.948 522.38H81.4793C79.1313 522.38 77.0769 520.316 77.0769 517.958V515.305C77.0769 514.715 77.6639 514.125 78.2509 514.125H112.883C113.47 514.125 114.057 514.715 114.057 515.305V517.958C114.35 520.611 112.296 522.38 109.948 522.38ZM79.7183 516.779V518.253C79.7183 519.137 80.5988 520.021 81.4793 520.021H109.948C110.828 520.021 111.709 519.137 111.709 518.253V516.779H79.7183Z" fill="white"/>
<path d="M98.5015 533.288H92.9252C86.4684 533.288 81.1855 527.982 81.1855 521.496C81.1855 520.906 81.7725 520.317 82.3595 520.317H109.067C109.654 520.317 110.241 520.906 110.241 521.496C110.241 527.982 104.958 533.288 98.5015 533.288ZM83.5335 522.38C84.1204 527.097 88.2293 530.635 92.9252 530.635H98.5015C103.197 530.635 107.306 527.097 107.893 522.38H83.5335Z" fill="white"/>
<path d="M149.276 494.08H119.34C119.046 494.08 118.753 493.785 118.459 493.785C118.166 493.49 118.166 493.196 118.166 492.901C119.633 483.173 122.568 473.444 126.97 464.6C127.264 464.306 127.557 464.011 128.144 464.011H149.276C149.863 464.011 150.45 464.6 150.45 465.19V492.901C150.45 493.49 150.156 494.08 149.276 494.08ZM120.807 491.427H148.102V466.074H129.025C124.916 474.329 122.275 482.878 120.807 491.427Z" fill="white"/>
<path d="M175.103 450.45H132.253C131.96 450.45 131.666 450.45 131.373 450.155C131.079 449.861 131.079 449.566 131.079 449.271V448.976C131.079 448.681 131.079 448.387 131.079 448.092C131.079 439.248 127.851 430.699 121.687 424.213C121.394 423.919 121.394 423.034 121.687 422.739C121.981 422.15 122.568 422.15 123.155 422.445L175.396 448.387C175.983 448.681 176.277 449.271 175.983 449.861C176.277 449.861 175.69 450.45 175.103 450.45ZM133.427 448.092H169.82L126.97 426.867C131.373 433.057 133.427 440.427 133.427 448.092Z" fill="white"/>
<path d="M171.874 533.287H128.144C127.851 533.287 127.557 532.993 127.264 532.993C125.209 530.339 124.035 527.392 124.035 523.854C124.035 515.894 130.786 509.114 139.003 509.999C139.59 504.692 143.993 500.86 149.569 500.86C155.439 500.86 160.135 505.577 160.135 511.473V511.767C168.059 512.357 174.222 518.842 174.222 527.097C174.222 529.16 173.929 530.929 173.048 532.698C172.755 532.993 172.461 533.287 171.874 533.287ZM128.731 530.634H170.994C171.287 529.455 171.581 527.981 171.581 526.507C171.581 519.432 166.005 513.831 158.961 513.831H158.667C158.374 513.831 158.08 513.831 157.787 513.536C157.493 513.241 157.493 512.947 157.493 512.652C157.493 512.062 157.493 511.767 157.493 511.473C157.493 507.051 153.971 503.218 149.276 503.218C144.58 503.218 141.058 506.756 141.058 511.473C141.058 511.767 140.764 512.357 140.764 512.357C140.471 512.652 140.177 512.652 139.884 512.652C139.297 512.652 138.416 512.357 137.829 512.357C131.666 512.357 126.383 517.368 126.383 523.854C126.383 526.212 127.264 528.866 128.731 530.634Z" fill="white"/>
<path d="M162.776 501.451C162.189 501.451 161.602 500.861 161.602 500.272V497.029C161.602 496.439 162.189 495.85 162.776 495.85C163.363 495.85 163.95 496.439 163.95 497.029V500.272C163.95 500.861 163.363 501.451 162.776 501.451Z" fill="white"/>
<path d="M162.776 489.365C162.189 489.365 161.602 488.775 161.602 488.186V482.29C161.602 481.7 162.189 481.11 162.776 481.11C163.363 481.11 163.95 481.7 163.95 482.29V488.186C163.95 488.775 163.363 489.365 162.776 489.365ZM162.776 474.625C162.189 474.625 161.602 474.035 161.602 473.446V467.55C161.602 466.96 162.189 466.371 162.776 466.371C163.363 466.371 163.95 466.96 163.95 467.55V473.446C163.95 474.035 163.363 474.625 162.776 474.625Z" fill="white"/>
<path d="M162.776 459.884C162.189 459.884 161.602 459.294 161.602 458.705V455.462C161.602 454.872 162.189 454.283 162.776 454.283C163.363 454.283 163.95 454.872 163.95 455.462V458.705C163.95 459.294 163.363 459.884 162.776 459.884Z" fill="white"/>
<path d="M128.144 533.288H98.5018C97.9149 533.288 97.3279 532.698 97.3279 532.109C97.3279 531.519 97.9149 530.93 98.5018 530.93C103.785 530.93 107.894 526.803 107.894 521.496C107.894 520.907 108.481 520.317 109.067 520.317H109.948C110.828 520.317 111.709 519.433 111.709 518.548V515.895C111.709 515.305 112.296 514.716 112.883 514.716H114.937C115.818 514.716 116.698 513.832 116.698 512.947V510.294C116.698 509.704 117.285 509.115 117.872 509.115H118.753C119.34 509.115 119.927 509.704 119.927 510.294C119.927 510.884 119.633 511.473 119.046 511.473V512.947C119.046 515.305 116.992 517.369 114.644 517.369H113.763V518.843C113.763 521.201 112.002 522.97 109.654 523.265C109.361 526.508 107.6 529.456 104.959 531.519H124.916C123.742 529.456 123.155 527.097 123.155 524.739C123.155 519.727 125.796 515.011 130.492 512.358C133.134 510.884 135.482 510.294 138.417 510.589C139.004 505.282 143.406 501.45 148.982 501.45C154.852 501.45 159.548 506.167 159.548 512.063V512.358C160.135 512.358 160.428 512.358 161.015 512.652V501.155C161.015 500.566 161.602 499.976 162.189 499.976C162.776 499.976 163.363 500.566 163.363 501.155V513.242C163.363 513.537 163.07 514.126 162.776 514.126C162.483 514.421 162.189 514.421 161.602 514.421C160.428 514.126 159.254 513.832 158.08 513.832H157.787C157.493 513.832 157.2 513.832 156.906 513.537C156.613 513.242 156.613 512.947 156.613 512.652C156.613 512.063 156.613 511.768 156.613 511.473C156.613 507.051 153.091 503.219 148.395 503.219C143.699 503.219 140.177 506.756 140.177 511.473C140.177 511.768 139.884 512.358 139.884 512.358C139.59 512.652 139.297 512.652 139.004 512.652C136.362 512.063 134.014 512.652 131.373 513.832C127.557 516.19 125.209 520.022 125.503 523.855C125.503 526.508 126.383 529.161 128.144 530.93C128.438 531.225 128.438 531.814 128.438 532.109C129.025 532.993 128.731 533.288 128.144 533.288Z" fill="white"/>
<path d="M119.046 496.733C118.166 496.733 117.872 496.143 117.872 495.259C119.046 484.351 121.981 473.738 127.264 464.01C129.612 459.293 131.079 454.282 131.079 448.976C131.079 448.386 131.666 447.796 132.253 447.796H162.776C163.363 447.796 163.95 448.386 163.95 448.976V455.166C163.95 455.756 163.363 456.345 162.776 456.345C162.189 456.345 161.602 455.756 161.602 455.166V450.155H133.427C133.134 455.461 131.666 460.473 129.318 465.189C124.329 474.623 121.394 484.941 120.22 495.553C120.22 496.438 119.633 496.733 119.046 496.733Z" fill="white"/>
<path d="M95.8602 476.392C88.2295 476.392 81.7727 470.202 81.7727 462.242C81.7727 454.577 87.936 448.092 95.8602 448.092C103.491 448.092 109.948 454.283 109.948 462.242C109.654 469.907 103.491 476.392 95.8602 476.392ZM95.8602 450.745C89.4035 450.745 84.4141 456.051 84.4141 462.242C84.4141 468.728 89.6969 473.739 95.8602 473.739C102.317 473.739 107.306 468.433 107.306 462.242C107.306 455.757 102.024 450.745 95.8602 450.745Z" fill="white"/>
<path d="M102.904 463.422C102.317 463.422 101.73 462.832 101.73 462.242C101.73 459 99.0884 456.052 95.5665 456.052C94.9796 456.052 94.3926 455.462 94.3926 454.873C94.3926 454.283 94.9796 453.693 95.5665 453.693C100.262 453.693 104.078 457.526 104.078 462.242C104.371 462.832 103.784 463.422 102.904 463.422Z" fill="white"/>
<path d="M95.8602 445.734C95.2733 445.734 94.6863 445.144 94.6863 444.555V438.069C94.6863 437.48 95.2733 436.89 95.8602 436.89C96.4472 436.89 97.0342 437.48 97.0342 438.069V444.555C97.0342 445.144 96.4472 445.734 95.8602 445.734Z" fill="white"/>
<path d="M107.013 449.86C106.719 449.86 106.426 449.86 106.133 449.566C105.546 449.271 105.546 448.386 105.839 447.797L109.948 442.785C110.241 442.196 111.122 442.196 111.709 442.491C112.296 442.785 112.296 443.67 112.002 444.259L107.893 449.566C107.893 449.86 107.306 449.86 107.013 449.86Z" fill="white"/>
<path d="M113.176 460.473C112.589 460.473 112.002 460.178 112.002 459.589C112.002 458.999 112.296 458.41 112.883 458.115L119.339 456.936C119.926 456.936 120.513 457.23 120.807 457.82C120.807 458.41 120.513 458.999 119.926 459.294L113.176 460.473Z" fill="white"/>
<path d="M116.698 475.508C116.405 475.508 116.405 475.508 116.111 475.213L110.535 471.97C109.948 471.675 109.654 470.791 109.948 470.201C110.241 469.612 111.122 469.317 111.709 469.612L117.285 472.855C117.872 473.149 118.166 474.034 117.872 474.623C117.285 475.213 116.992 475.508 116.698 475.508Z" fill="white"/>
<path d="M104.078 486.122C103.491 486.122 103.198 485.827 102.904 485.237L100.556 479.047C100.263 478.457 100.556 477.573 101.143 477.573C101.73 477.278 102.611 477.573 102.611 478.162L104.665 484.353C104.959 484.943 104.665 485.827 104.078 485.827C104.372 486.122 104.078 486.122 104.078 486.122Z" fill="white"/>
<path d="M87.6423 486.121H87.3488C86.7619 485.826 86.4684 485.237 86.7619 484.647L88.8163 478.456C89.1098 477.867 89.6968 477.572 90.2837 477.867C90.8707 478.161 91.1642 478.751 90.8707 479.341L88.8163 485.531C88.5228 485.826 87.9358 486.121 87.6423 486.121Z" fill="white"/>
<path d="M75.0223 475.508C74.7288 475.508 74.1418 475.214 73.8483 474.919C73.5548 474.329 73.8483 473.445 74.4353 473.15L80.0116 469.907C80.5986 469.612 81.479 469.907 81.7725 470.497C82.066 471.086 81.7725 471.971 81.1856 472.266L75.6092 475.508C75.3157 475.508 75.0223 475.508 75.0223 475.508Z" fill="white"/>
<path d="M78.5445 460.474C78.251 460.474 78.251 460.474 78.5445 460.474L72.0877 459.295C71.5007 459.295 70.9137 458.41 71.2072 457.821C71.2072 457.231 72.0877 456.642 72.6747 456.936L78.5445 458.116C79.1315 458.116 79.7184 459 79.4249 459.589C79.4249 459.884 79.1315 460.474 78.5445 460.474Z" fill="white"/>
<path d="M84.4145 449.861C84.121 449.861 83.8276 449.566 83.5341 449.566L79.4252 444.555C79.1317 443.965 79.1317 443.376 79.7187 442.786C80.0122 442.491 80.8927 442.491 81.1861 443.081L85.295 448.092C85.5885 448.682 85.5885 449.271 85.0015 449.861C85.0015 449.861 84.708 449.861 84.4145 449.861Z" fill="white"/>
<path d="M113.867 389.936C113.867 392.051 113.506 393.624 112.783 394.652C112.061 395.681 110.931 396.195 109.395 396.195C107.878 396.195 106.755 395.694 106.025 394.691C105.296 393.682 104.919 392.178 104.893 390.18V387.768C104.893 385.678 105.254 384.125 105.977 383.109C106.699 382.094 107.832 381.586 109.375 381.586C110.905 381.586 112.031 382.077 112.754 383.061C113.477 384.037 113.848 385.548 113.867 387.592V389.936ZM112.061 387.465C112.061 385.935 111.846 384.822 111.416 384.125C110.986 383.422 110.306 383.07 109.375 383.07C108.451 383.07 107.777 383.419 107.354 384.115C106.93 384.812 106.712 385.883 106.699 387.328V390.219C106.699 391.755 106.921 392.891 107.363 393.627C107.812 394.356 108.49 394.721 109.395 394.721C110.286 394.721 110.947 394.376 111.377 393.686C111.813 392.995 112.041 391.908 112.061 390.424V387.465ZM125.498 396H116.182V394.701L121.104 389.232C121.833 388.406 122.334 387.735 122.607 387.221C122.887 386.7 123.027 386.163 123.027 385.609C123.027 384.867 122.803 384.258 122.354 383.783C121.904 383.308 121.305 383.07 120.557 383.07C119.658 383.07 118.958 383.327 118.457 383.842C117.962 384.35 117.715 385.059 117.715 385.971H115.908C115.908 384.662 116.328 383.604 117.168 382.797C118.014 381.99 119.144 381.586 120.557 381.586C121.878 381.586 122.923 381.934 123.691 382.631C124.46 383.321 124.844 384.242 124.844 385.395C124.844 386.794 123.952 388.461 122.168 390.395L118.359 394.525H125.498V396Z" fill="white"/>
<path d="M320.867 27.9355C320.867 30.0514 320.506 31.6237 319.783 32.6523C319.061 33.681 317.931 34.1953 316.395 34.1953C314.878 34.1953 313.755 33.694 313.025 32.6914C312.296 31.6823 311.919 30.1784 311.893 28.1797V25.7676C311.893 23.6777 312.254 22.125 312.977 21.1094C313.699 20.0938 314.832 19.5859 316.375 19.5859C317.905 19.5859 319.031 20.0775 319.754 21.0605C320.477 22.0371 320.848 23.5475 320.867 25.5918V27.9355ZM319.061 25.4648C319.061 23.9349 318.846 22.8216 318.416 22.125C317.986 21.4219 317.306 21.0703 316.375 21.0703C315.451 21.0703 314.777 21.4186 314.354 22.1152C313.93 22.8118 313.712 23.8828 313.699 25.3281V28.2188C313.699 29.7552 313.921 30.8913 314.363 31.627C314.812 32.3561 315.49 32.7207 316.395 32.7207C317.286 32.7207 317.947 32.3757 318.377 31.6855C318.813 30.9954 319.041 29.9082 319.061 28.4238V25.4648ZM329.119 34H327.303V21.959L323.66 23.2969V21.6562L328.836 19.7129H329.119V34Z" fill="white"/>
<path d="M101.867 292.936C101.867 295.051 101.506 296.624 100.783 297.652C100.061 298.681 98.931 299.195 97.3945 299.195C95.8776 299.195 94.7546 298.694 94.0254 297.691C93.2962 296.682 92.9186 295.178 92.8926 293.18V290.768C92.8926 288.678 93.2539 287.125 93.9766 286.109C94.6992 285.094 95.832 284.586 97.375 284.586C98.9049 284.586 100.031 285.077 100.754 286.061C101.477 287.037 101.848 288.548 101.867 290.592V292.936ZM100.061 290.465C100.061 288.935 99.8457 287.822 99.416 287.125C98.9863 286.422 98.306 286.07 97.375 286.07C96.4505 286.07 95.7767 286.419 95.3535 287.115C94.9303 287.812 94.7122 288.883 94.6992 290.328V293.219C94.6992 294.755 94.9206 295.891 95.3633 296.627C95.8125 297.356 96.4896 297.721 97.3945 297.721C98.2865 297.721 98.9473 297.376 99.377 296.686C99.8132 295.995 100.041 294.908 100.061 293.424V290.465ZM110.119 299H108.303V286.959L104.66 288.297V286.656L109.836 284.713H110.119V299Z" fill="white"/>
<path d="M515.367 389.936C515.367 392.051 515.006 393.624 514.283 394.652C513.561 395.681 512.431 396.195 510.895 396.195C509.378 396.195 508.255 395.694 507.525 394.691C506.796 393.682 506.419 392.178 506.393 390.18V387.768C506.393 385.678 506.754 384.125 507.477 383.109C508.199 382.094 509.332 381.586 510.875 381.586C512.405 381.586 513.531 382.077 514.254 383.061C514.977 384.037 515.348 385.548 515.367 387.592V389.936ZM513.561 387.465C513.561 385.935 513.346 384.822 512.916 384.125C512.486 383.422 511.806 383.07 510.875 383.07C509.951 383.07 509.277 383.419 508.854 384.115C508.43 384.812 508.212 385.883 508.199 387.328V390.219C508.199 391.755 508.421 392.891 508.863 393.627C509.312 394.356 509.99 394.721 510.895 394.721C511.786 394.721 512.447 394.376 512.877 393.686C513.313 392.995 513.541 391.908 513.561 390.424V387.465ZM520.309 388.012H521.666C522.519 387.999 523.189 387.774 523.678 387.338C524.166 386.902 524.41 386.312 524.41 385.57C524.41 383.904 523.58 383.07 521.92 383.07C521.139 383.07 520.514 383.295 520.045 383.744C519.583 384.187 519.352 384.776 519.352 385.512H517.545C517.545 384.385 517.955 383.451 518.775 382.709C519.602 381.96 520.65 381.586 521.92 381.586C523.261 381.586 524.312 381.941 525.074 382.65C525.836 383.36 526.217 384.346 526.217 385.609C526.217 386.228 526.015 386.827 525.611 387.406C525.214 387.986 524.671 388.419 523.98 388.705C524.762 388.952 525.364 389.363 525.787 389.936C526.217 390.508 526.432 391.208 526.432 392.035C526.432 393.311 526.015 394.324 525.182 395.072C524.348 395.821 523.264 396.195 521.93 396.195C520.595 396.195 519.508 395.834 518.668 395.111C517.835 394.389 517.418 393.435 517.418 392.25H519.234C519.234 392.999 519.479 393.598 519.967 394.047C520.455 394.496 521.109 394.721 521.93 394.721C522.802 394.721 523.469 394.493 523.932 394.037C524.394 393.581 524.625 392.927 524.625 392.074C524.625 391.247 524.371 390.613 523.863 390.17C523.355 389.727 522.623 389.499 521.666 389.486H520.309V388.012Z" fill="white"/>
<path d="M519.707 143.755C519.707 145.236 519.454 146.337 518.948 147.057C518.442 147.777 517.652 148.137 516.576 148.137C515.514 148.137 514.728 147.786 514.218 147.084C513.707 146.378 513.443 145.325 513.425 143.926V142.237C513.425 140.774 513.678 139.688 514.184 138.977C514.689 138.266 515.482 137.91 516.562 137.91C517.633 137.91 518.422 138.254 518.928 138.942C519.434 139.626 519.693 140.683 519.707 142.114V143.755ZM518.442 142.025C518.442 140.954 518.292 140.175 517.991 139.688C517.69 139.195 517.214 138.949 516.562 138.949C515.915 138.949 515.444 139.193 515.147 139.681C514.851 140.168 514.699 140.918 514.689 141.93V143.953C514.689 145.029 514.844 145.824 515.154 146.339C515.469 146.849 515.943 147.104 516.576 147.104C517.201 147.104 517.663 146.863 517.964 146.38C518.269 145.897 518.429 145.136 518.442 144.097V142.025ZM523.166 142.408H524.116C524.713 142.399 525.183 142.242 525.524 141.937C525.866 141.631 526.037 141.219 526.037 140.699C526.037 139.533 525.456 138.949 524.294 138.949C523.747 138.949 523.31 139.106 522.981 139.421C522.658 139.731 522.496 140.143 522.496 140.658H521.231C521.231 139.87 521.519 139.216 522.093 138.696C522.672 138.172 523.405 137.91 524.294 137.91C525.233 137.91 525.969 138.159 526.502 138.655C527.035 139.152 527.302 139.842 527.302 140.727C527.302 141.16 527.16 141.579 526.878 141.984C526.6 142.39 526.219 142.693 525.736 142.894C526.283 143.067 526.705 143.354 527.001 143.755C527.302 144.156 527.452 144.646 527.452 145.225C527.452 146.118 527.16 146.826 526.577 147.351C525.994 147.875 525.235 148.137 524.301 148.137C523.367 148.137 522.605 147.884 522.018 147.378C521.434 146.872 521.143 146.204 521.143 145.375H522.414C522.414 145.899 522.585 146.318 522.927 146.633C523.269 146.947 523.727 147.104 524.301 147.104C524.911 147.104 525.379 146.945 525.702 146.626C526.026 146.307 526.188 145.849 526.188 145.252C526.188 144.673 526.01 144.229 525.654 143.919C525.299 143.609 524.786 143.45 524.116 143.44H523.166V142.408Z" fill="white"/>
<g clip-path="url(#clip1_88_5108)">
<path d="M586.769 485.375C586.153 485.375 585.537 484.766 585.537 484.156V441.48C585.537 440.87 586.153 440.26 586.769 440.26C587.384 440.26 588 440.87 588 441.48V484.156C588 485.07 587.384 485.375 586.769 485.375Z" fill="white"/>
<path d="M576.301 498.179H466.699C460.234 498.179 455 492.997 455 486.595V438.737C455 432.335 460.234 427.153 466.699 427.153H479.63C480.245 427.153 480.861 427.763 480.861 428.373C480.861 428.982 480.245 429.592 479.63 429.592H466.699C461.773 429.592 457.771 433.555 457.771 438.432V486.29C457.771 491.168 461.773 495.131 466.699 495.131H576.609C581.535 495.131 585.537 491.168 585.537 486.29V484.157C585.537 483.547 586.153 482.937 586.769 482.937C587.384 482.937 588 483.547 588 484.157V486.29C588 492.997 582.766 498.179 576.301 498.179Z" fill="white"/>
<path d="M586.768 442.7C586.153 442.7 585.537 442.09 585.537 441.48V438.737C585.537 433.86 581.535 429.897 576.609 429.897H529.504C528.889 429.897 528.273 429.287 528.273 428.677C528.273 428.068 528.889 427.153 529.504 427.153H576.301C582.766 427.153 588 432.335 588 438.737V441.48C588 442.09 587.384 442.7 586.768 442.7Z" fill="white"/>
<path d="M549.824 505.494H493.484C488.558 505.494 484.556 501.531 484.556 496.653C484.556 496.044 485.171 495.434 485.787 495.434H557.213C557.829 495.434 558.445 496.044 558.445 496.653C558.445 501.531 554.442 505.494 549.824 505.494ZM487.326 498.178C487.942 500.921 490.405 503.055 493.484 503.055H549.824C552.903 503.055 555.366 500.921 555.982 498.178H487.326Z" fill="white"/>
<path d="M542.743 529.88C542.128 529.88 541.82 529.576 541.512 529.271L534.739 514.639H508.57L501.797 529.271C501.489 529.88 500.873 530.185 499.949 529.88C499.334 529.576 499.026 528.966 499.334 528.051L506.723 512.81C507.03 512.505 507.338 512.2 507.954 512.2H535.97C536.586 512.2 536.894 512.505 537.202 512.81L544.591 528.051C544.898 528.661 544.591 529.576 543.975 529.88C543.051 529.88 543.051 529.88 542.743 529.88Z" fill="white"/>
<path d="M572.607 498.179H470.394C469.778 498.179 469.162 497.569 469.162 496.96V471.049C469.162 470.439 469.778 469.83 470.394 469.83C474.088 469.83 477.167 466.781 477.167 463.123C477.167 459.465 474.088 456.417 470.394 456.417C469.778 456.417 469.162 455.807 469.162 455.198V428.373C469.162 427.763 469.778 427.153 470.394 427.153H477.167C477.782 427.153 478.398 427.763 478.398 428.373C478.398 428.982 477.782 429.592 477.167 429.592H471.625V453.674C476.243 454.283 479.63 458.246 479.63 462.819C479.63 467.391 476.243 471.354 471.625 471.963V495.435H571.375V429.592H534.123C533.507 429.592 532.891 428.982 532.891 428.373C532.891 427.763 533.507 427.153 534.123 427.153H572.607C573.222 427.153 573.838 427.763 573.838 428.373V496.655C573.838 497.569 573.53 498.179 572.607 498.179Z" fill="white"/>
<path d="M470.393 471.962C465.16 471.962 461.157 467.999 461.157 462.817C461.157 457.635 465.16 453.672 470.393 453.672C475.627 453.672 479.629 457.635 479.629 462.817C479.629 467.999 475.319 471.962 470.393 471.962ZM470.393 456.111C466.699 456.111 463.62 459.159 463.62 462.817C463.62 466.475 466.699 469.524 470.393 469.524C474.088 469.524 477.166 466.475 477.166 462.817C477.166 459.159 474.088 456.111 470.393 456.111Z" fill="white"/>
<path d="M579.688 474.401C579.072 474.401 578.456 473.791 578.456 473.181V452.148C578.456 451.538 579.072 450.929 579.688 450.929C580.303 450.929 580.919 451.538 580.919 452.148V473.181C580.919 473.791 580.303 474.401 579.688 474.401Z" fill="white"/>
<path d="M539.356 514.639H503.643C501.18 514.639 499.025 512.505 499.025 510.066V504.275C499.025 503.665 499.641 503.055 500.257 503.055H542.435C543.051 503.055 543.667 503.665 543.667 504.275V510.066C543.974 512.505 541.819 514.639 539.356 514.639ZM501.796 505.494V510.066C501.796 511.286 502.72 512.2 503.951 512.2H539.664C540.896 512.2 541.819 511.286 541.819 510.066V505.494H501.796Z" fill="white"/>
<path d="M489.482 480.803H470.394C469.778 480.803 469.162 480.193 469.162 479.583C469.162 478.974 469.778 478.364 470.394 478.364H488.25V463.732C488.25 463.122 488.866 462.513 489.482 462.513H500.257V446.357C500.257 445.747 500.873 445.137 501.489 445.137H529.197L546.438 427.457C547.053 426.848 547.669 426.848 548.285 427.457C548.901 428.067 548.901 428.677 548.285 429.286L530.428 447.271C530.12 447.576 529.813 447.576 529.505 447.576H502.72V463.427C502.72 464.037 502.104 464.647 501.489 464.647H490.713V479.278C490.713 480.193 490.097 480.803 489.482 480.803Z" fill="white"/>
<path d="M507.03 480.802H489.481C488.866 480.802 488.25 480.193 488.25 479.583C488.25 478.973 488.866 478.364 489.481 478.364H507.03C507.646 478.364 508.262 478.973 508.262 479.583C508.262 480.193 507.646 480.802 507.03 480.802Z" fill="white"/>
<path d="M520.268 464.646H501.488C500.873 464.646 500.257 464.037 500.257 463.427C500.257 462.817 500.873 462.208 501.488 462.208H520.268C520.884 462.208 521.5 462.817 521.5 463.427C521.808 464.341 521.192 464.646 520.268 464.646Z" fill="white"/>
<path d="M540.28 447.576H529.813C529.197 447.576 528.581 446.966 528.581 446.357C528.581 445.747 529.197 445.137 529.813 445.137H540.28C540.896 445.137 541.512 445.747 541.512 446.357C541.512 446.966 540.896 447.576 540.28 447.576Z" fill="white"/>
<path d="M539.356 480.802H518.113C517.498 480.802 516.882 480.193 516.882 479.583C516.882 478.973 517.498 478.364 518.113 478.364H539.356C539.972 478.364 540.588 478.973 540.588 479.583C540.588 480.193 539.972 480.802 539.356 480.802Z" fill="white"/>
<path d="M550.748 464.646H528.889C528.273 464.646 527.658 464.037 527.658 463.427C527.658 462.817 528.273 462.208 528.889 462.208H550.748C551.364 462.208 551.979 462.817 551.979 463.427C551.979 464.341 551.364 464.646 550.748 464.646Z" fill="white"/>
<path d="M572.607 447.576H549.209C548.593 447.576 547.977 446.966 547.977 446.357C547.977 445.747 548.593 445.137 549.209 445.137H572.607C573.222 445.137 573.838 445.747 573.838 446.357C573.838 446.966 573.53 447.576 572.607 447.576Z" fill="white"/>
<path d="M534.123 429.592H530.736C530.121 429.592 529.505 428.982 529.505 428.373C529.505 427.763 530.121 427.153 530.736 427.153H534.123C534.739 427.153 535.354 427.763 535.354 428.373C535.354 428.982 534.739 429.592 534.123 429.592Z" fill="white"/>
<path d="M519.037 429.592H511.34C510.724 429.592 510.109 428.982 510.109 428.373C510.109 427.763 510.724 427.153 511.34 427.153H519.037C519.653 427.153 520.268 427.763 520.268 428.373C520.268 428.982 519.961 429.592 519.037 429.592ZM499.949 429.592H491.944C491.329 429.592 490.713 428.982 490.713 428.373C490.713 427.763 491.329 427.153 491.944 427.153H499.641C500.565 427.153 501.18 427.763 501.18 428.373C501.18 428.982 500.565 429.592 499.949 429.592Z" fill="white"/>
<path d="M480.553 429.592H477.167C476.551 429.592 475.935 428.982 475.935 428.373C475.935 427.763 476.243 427.153 477.167 427.153H480.553C481.169 427.153 481.785 427.763 481.785 428.373C481.785 428.982 481.169 429.592 480.553 429.592Z" fill="white"/>
<path d="M572.607 480.802H566.141C565.526 480.802 564.91 480.193 564.91 479.583C564.91 478.973 565.526 478.364 566.141 478.364H572.607C573.222 478.364 573.838 478.973 573.838 479.583C573.838 480.193 573.53 480.802 572.607 480.802ZM555.982 480.802H549.209C548.593 480.802 547.977 480.193 547.977 479.583C547.977 478.973 548.593 478.364 549.209 478.364H555.982C556.597 478.364 557.213 478.973 557.213 479.583C557.213 480.193 556.597 480.802 555.982 480.802Z" fill="white"/>
</g>
<defs>
<clipPath id="clip0_88_5108">
<rect width="140.782" height="130.726" fill="white" transform="translate(254.251 60.3354)"/>
</clipPath>
<clipPath id="clip1_88_5108">
<rect width="133" height="103" fill="white" transform="translate(455 427)"/>
</clipPath>
</defs>
</svg>
