<svg width="152" height="21" viewBox="0 0 152 21" fill="none" xmlns="http://www.w3.org/2000/svg">
<path d="M25.1208 0.572754H29.89V20.3796H25.1208V0.572754Z" fill="#1C1F2A"/>
<path d="M49.1084 0.572754V20.3796H43.7254L36.3591 7.87503L36.7369 12.075V20.3796H31.9677V0.572754H37.3508L44.6698 13.0773L44.3865 8.8773V0.572754H49.1084Z" fill="#1C1F2A"/>
<path d="M68.2324 0.572754V20.3796H62.8494L55.4831 7.87503L55.8609 12.075V20.3796H51.0917V0.572754H56.4747L63.7938 13.0773L63.416 8.8773V0.572754H68.2324Z" fill="#1C1F2A"/>
<path d="M90.0007 10.4523C90.0007 16.275 85.562 20.7136 79.754 20.7136C73.946 20.7136 69.5073 16.275 69.5073 10.4523C69.5073 4.62955 73.946 0.190918 79.754 0.190918C85.562 0.190918 90.0007 4.62955 90.0007 10.4523ZM74.3237 10.4523C74.3237 13.7455 76.6375 16.1318 79.754 16.1318C82.8705 16.1318 85.1843 13.7455 85.1843 10.4523C85.1843 7.1591 82.8705 4.77274 79.754 4.77274C76.6375 4.77274 74.3237 7.1591 74.3237 10.4523Z" fill="#1C1F2A"/>
<path d="M105.583 5.15457H100.247V20.3796H95.4782V5.15457H90.1423V0.572754H105.583V5.15457V5.15457Z" fill="#1C1F2A"/>
<path d="M106.575 0.572754H111.344V20.3796H106.575V0.572754Z" fill="#1C1F2A"/>
<path d="M112.855 10.4523C112.855 4.62955 117.152 0.190918 123.007 0.190918C127.824 0.190918 131.507 3.24546 132.546 7.54092H127.493C126.69 5.82274 125.132 4.77274 123.054 4.77274C119.796 4.77274 117.719 7.1591 117.719 10.4523C117.719 13.7455 119.796 16.1318 123.054 16.1318C125.132 16.1318 126.738 15.0818 127.493 13.3636H132.593C131.507 17.6591 127.871 20.7136 123.054 20.7136C117.152 20.7614 112.855 16.275 112.855 10.4523Z" fill="#1C1F2A"/>
<path d="M145.531 16.275H138.212L136.795 20.3796H131.743L138.873 0.572754H144.87L152 20.3796H146.948L145.531 16.275ZM143.973 11.6932L141.895 5.53639L139.77 11.6932H143.973Z" fill="#1C1F2A"/>
<path d="M10.8133 21C4.86362 21 0 16.0841 0 10.0705C0 5.67955 2.59708 1.71818 6.56353 0L7.03572 1.19318C3.54147 2.67273 1.27493 6.20455 1.27493 10.0705C1.27493 15.4159 5.57192 19.7114 10.8133 19.7114C15.913 19.7114 20.1156 15.6545 20.3517 10.5L21.6266 10.5477C21.3433 16.4182 16.6213 21 10.8133 21Z" fill="#64AE45"/>
<path d="M10.8133 18.7568C6.09131 18.7568 2.2193 14.8432 2.2193 10.0704C2.2193 8.44772 2.64428 6.87272 3.49423 5.53635L4.53306 6.20454C3.82477 7.34999 3.44701 8.68635 3.44701 10.0704C3.44701 14.175 6.75238 17.4682 10.7661 17.4682C14.7797 17.4682 18.0851 14.1273 18.0851 10.0704C18.0851 8.54317 17.6129 7.0159 16.7157 5.77499L17.7546 5.05908C18.7934 6.53863 19.36 8.25681 19.36 10.0704C19.4072 14.8432 15.5352 18.7568 10.8133 18.7568Z" fill="#64AE45"/>
<path d="M10.8133 16.5136C7.36628 16.5136 4.48588 13.6977 4.43866 10.2136L5.71359 10.1659C5.76081 12.9818 8.07457 15.225 10.8605 15.225C13.6937 15.225 16.0075 12.8863 16.0075 10.0227C16.0075 8.20906 15.0631 6.5386 13.5521 5.58406L14.2131 4.48633C16.1491 5.67951 17.2824 7.73178 17.2824 10.0227C17.188 13.6022 14.3548 16.5136 10.8133 16.5136Z" fill="#64AE45"/>
<path d="M10.8133 14.2706C9.77445 14.2706 8.78284 13.8888 7.9801 13.1729L8.83006 12.2183C9.34947 12.6956 10.0578 12.982 10.8133 12.982C12.4187 12.982 13.7409 11.6456 13.7409 10.0229C13.7409 8.78198 12.9382 7.63652 11.7577 7.2547L12.1826 6.06152C13.8826 6.63425 15.0158 8.25698 15.0158 10.0706C15.0158 12.4092 13.127 14.2706 10.8133 14.2706Z" fill="#64AE45"/>
<path d="M11.8993 11.6932L11.1911 10.6432C11.3799 10.5 11.5216 10.3091 11.5216 10.0705C11.5216 9.68865 11.1911 9.35455 10.8133 9.35455C10.7189 9.35455 10.6716 9.35456 10.5772 9.40228L10.1522 8.2091C10.3883 8.11365 10.5772 8.06592 10.8133 8.06592C11.8993 8.06592 12.7965 8.97274 12.7965 10.0705C12.7965 10.7386 12.466 11.3114 11.8993 11.6932Z" fill="#64AE45"/>
</svg>
